<svg width="95" height="48" viewBox="0 0 95 48" fill="none" xmlns="http://www.w3.org/2000/svg">
<path d="M5.37213 22.372C6.58813 22.372 7.47879 22.692 8.04413 23.332C8.55613 23.9187 8.81213 24.788 8.81213 25.94V28.916H10.5401V30.5H8.81213V30.804C8.79079 32.1693 8.41213 33.1827 7.67613 33.844C7.04679 34.388 6.18813 34.66 5.10013 34.66C4.11879 34.66 3.18013 34.436 2.28413 33.988L2.89213 32.548C3.55346 32.8573 4.20946 33.012 4.86013 33.012C6.19346 33.012 6.86013 32.324 6.86013 30.948V30.5H5.14813C4.10279 30.5 3.30279 30.1907 2.74813 29.572C2.19346 28.964 1.91613 28.084 1.91613 26.932V25.94C1.91613 23.5613 3.06813 22.372 5.37213 22.372ZM5.37213 23.956C4.36946 23.956 3.86813 24.5427 3.86813 25.716V27.14C3.86813 28.324 4.36946 28.916 5.37213 28.916H6.87613V25.716C6.87613 24.5427 6.37479 23.956 5.37213 23.956ZM15.4184 22.372C16.869 22.372 17.9624 22.8733 18.6984 23.876C18.9224 24.2067 19.0824 24.5533 19.1784 24.916C19.285 25.268 19.3757 25.844 19.4504 26.644C19.5357 27.4013 19.6637 27.94 19.8344 28.26C20.0797 28.6973 20.485 28.916 21.0504 28.916H21.0984V30.5H10.2344V28.916H18.0584C17.8984 28.6387 17.7864 28.3613 17.7224 28.084C17.6584 27.8067 17.5944 27.3533 17.5304 26.724C17.445 25.892 17.2797 25.2627 17.0344 24.836C16.8744 24.5587 16.645 24.3453 16.3464 24.196C16.0584 24.036 15.7437 23.956 15.4024 23.956C14.6557 23.956 14.0317 24.3453 13.5304 25.124L12.0424 24.276C12.373 23.668 12.837 23.1987 13.4344 22.868C14.021 22.5373 14.6824 22.372 15.4184 22.372ZM16.2504 33.78H14.2984V31.828H16.2504V33.78ZM26.4971 22.372C27.7131 22.372 28.6038 22.692 29.1691 23.332C29.6811 23.9187 29.9371 24.788 29.9371 25.94V28.916H31.6651V30.5H29.9371V30.804C29.9158 32.1693 29.5371 33.1827 28.8011 33.844C28.1718 34.388 27.3131 34.66 26.2251 34.66C25.2438 34.66 24.3051 34.436 23.4091 33.988L24.0171 32.548C24.6785 32.8573 25.3345 33.012 25.9851 33.012C27.3185 33.012 27.9851 32.324 27.9851 30.948V30.5H26.2731C25.2278 30.5 24.4278 30.1907 23.8731 29.572C23.3185 28.964 23.0411 28.084 23.0411 26.932V25.94C23.0411 23.5613 24.1931 22.372 26.4971 22.372ZM26.4971 23.956C25.4945 23.956 24.9931 24.5427 24.9931 25.716V27.14C24.9931 28.324 25.4945 28.916 26.4971 28.916H28.0011V25.716C28.0011 24.5427 27.4998 23.956 26.4971 23.956ZM35.7914 19.076V27.012C35.7914 28.26 35.4554 29.1773 34.7834 29.764C34.218 30.2547 33.4287 30.5 32.4154 30.5H31.3594V28.916H32.4154C32.8954 28.916 33.2634 28.74 33.5194 28.388C33.7327 28.0893 33.8394 27.7 33.8394 27.22V19.076H35.7914Z" fill="#3E3E3E"/>
<circle cx="71" cy="24" r="24" fill="#F5EBF6"/>
</svg>
