<svg width="45" height="44" viewBox="0 0 45 44" fill="none" xmlns="http://www.w3.org/2000/svg">
<path d="M0.206302 18.9437C4.61866 18.3061 9.22504 18.9932 13.2218 20.9605C15.868 22.2369 18.2488 24.0469 20.1865 26.2395C19.458 27.2039 18.8033 28.2191 18.21 29.269C16.1071 26.6146 13.2656 24.5421 10.0762 23.3486C6.88555 22.1378 3.36067 21.8407 0.0035222 22.4548C-0.0165055 21.2811 0.048584 20.1074 0.206302 18.9437Z" fill="#2B9A47"/>
<path d="M0.365723 25.9576C4.37377 25.1244 8.69977 25.9848 12.0619 28.2987C13.8707 29.5256 15.4016 31.1487 16.5168 33.0157C15.6682 35.3704 15.2 37.849 15.0586 40.3424C14.9359 37.0331 13.3437 33.7969 10.7101 31.7368C8.11396 29.6519 4.58281 28.7655 1.29701 29.3956C0.891451 28.2777 0.574762 27.1275 0.365723 25.9576Z" fill="#2B9A47"/>
<path d="M2.8526 32.8022C5.00558 32.6475 7.20739 33.3977 8.79709 34.8437C10.4744 36.3356 11.437 38.5579 11.4107 40.7851C11.089 40.7567 10.7285 40.8384 10.4494 40.644C7.31378 38.7052 4.67012 35.9902 2.8526 32.8022Z" fill="#2B9A47"/>
<path d="M16.6509 0.679691C22.0108 -0.680921 27.8814 0.0148607 32.7419 2.64447C37.8252 5.3496 41.7556 10.0888 43.4204 15.5585C42.1925 15.4446 40.9583 15.405 39.7266 15.4583C38.2558 11.5634 35.4131 8.20082 31.8081 6.06643C27.8176 3.67081 22.9045 2.86113 18.3395 3.81071C14.5817 4.57458 11.0894 6.52451 8.47329 9.29773C6.7847 11.0743 5.46287 13.1852 4.59041 15.4657C3.36121 15.4087 2.1295 15.431 0.904053 15.5362C2.03187 11.915 4.116 8.59204 6.90612 5.99586C9.62864 3.44549 13.0146 1.59337 16.6509 0.679691Z" fill="#FFCD0A"/>
<path d="M15.589 8.40294C19.1277 6.71177 23.3373 6.47406 27.0524 7.73315C31.0254 9.0492 34.3575 12.0812 36.0536 15.8659C34.857 16.0924 33.6766 16.3995 32.52 16.7796C31.3822 14.5684 29.5121 12.7373 27.2577 11.6491C24.5414 10.3182 21.2907 10.1114 18.423 11.0858C15.5427 12.0366 13.0968 14.166 11.7437 16.8514C10.5921 16.4663 9.41925 16.1482 8.2276 15.9129C9.67711 12.6507 12.3333 9.93192 15.589 8.40294Z" fill="#FFCD0A"/>
<path d="M20.0058 14.3621C22.5343 13.6502 25.3995 14.2655 27.3797 15.9852C28.1058 16.598 28.7091 17.3483 29.176 18.1716C28.1346 18.6978 27.1257 19.2846 26.1643 19.942C25.3181 18.309 23.3992 17.2913 21.5542 17.5736C20.0696 17.7593 18.744 18.7436 18.0956 20.0695C17.1343 19.4096 16.1317 18.8079 15.094 18.2743C16.1079 16.3851 17.9167 14.9291 20.0058 14.3621Z" fill="#FFCD0A"/>
<path d="M31.0611 20.9457C35.0654 18.9945 39.6718 18.3037 44.0854 18.9438C44.2443 20.1038 44.322 21.2775 44.2907 22.4474C39.6981 21.5957 34.795 22.5019 30.8483 24.9842C27.5024 27.0678 24.8437 30.2174 23.398 33.8598C22.1149 37.0589 21.7682 40.6096 22.3841 43.9944C21.1949 44.034 20.0145 43.8582 18.8367 43.727C18.1532 38.9197 19.1245 33.8944 21.5917 29.695C23.7835 25.94 27.1206 22.8461 31.0611 20.9457Z" fill="#02A9E0"/>
<path d="M29.9105 30.232C32.6969 27.3424 36.6974 25.6538 40.7342 25.65C41.8095 25.6401 42.886 25.7478 43.9412 25.9596C43.7196 27.1233 43.413 28.271 43.0099 29.3877C40.5427 28.9284 37.9278 29.2726 35.681 30.3856C33.5618 31.4193 31.7818 33.1155 30.649 35.1657C29.3773 37.4486 28.9329 40.1686 29.4111 42.7314C28.2795 43.1275 27.1129 43.421 25.9325 43.6289C24.9461 38.8749 26.4607 33.6924 29.9105 30.232Z" fill="#02A9E0"/>
<path d="M35.1868 35.0865C36.7965 33.4746 39.1285 32.6389 41.4079 32.7986C39.4201 36.311 36.4122 39.2427 32.8573 41.1963C32.7096 38.9542 33.5633 36.6651 35.1868 35.0865Z" fill="#02A9E0"/>
</svg>
