<svg width="164" height="44" viewBox="0 0 164 44" fill="none" xmlns="http://www.w3.org/2000/svg">
<path d="M0.206302 18.9437C4.61866 18.3061 9.22504 18.9932 13.2218 20.9605C15.868 22.2369 18.2488 24.0469 20.1865 26.2395C19.458 27.2039 18.8033 28.2191 18.21 29.269C16.1071 26.6146 13.2656 24.5421 10.0762 23.3486C6.88555 22.1378 3.36067 21.8407 0.0035222 22.4548C-0.0165055 21.2811 0.048584 20.1074 0.206302 18.9437Z" fill="#2B9A47"/>
<path d="M0.365723 25.9576C4.37377 25.1244 8.69977 25.9848 12.0619 28.2987C13.8707 29.5256 15.4016 31.1487 16.5168 33.0157C15.6682 35.3704 15.2 37.849 15.0586 40.3424C14.9359 37.0331 13.3437 33.7969 10.7101 31.7368C8.11396 29.6519 4.58281 28.7655 1.29701 29.3956C0.891451 28.2777 0.574762 27.1275 0.365723 25.9576Z" fill="#2B9A47"/>
<path d="M2.8526 32.8022C5.00558 32.6475 7.20739 33.3977 8.79709 34.8437C10.4744 36.3356 11.437 38.5579 11.4107 40.7851C11.089 40.7567 10.7285 40.8384 10.4494 40.644C7.31378 38.7052 4.67012 35.9902 2.8526 32.8022Z" fill="#2B9A47"/>
<path d="M16.6509 0.679691C22.0108 -0.680921 27.8814 0.0148607 32.7419 2.64447C37.8252 5.3496 41.7556 10.0888 43.4204 15.5585C42.1925 15.4446 40.9583 15.405 39.7266 15.4583C38.2558 11.5634 35.4131 8.20082 31.8081 6.06643C27.8176 3.67081 22.9045 2.86113 18.3395 3.81071C14.5817 4.57458 11.0894 6.52451 8.47329 9.29773C6.7847 11.0743 5.46287 13.1852 4.59041 15.4657C3.36121 15.4087 2.1295 15.431 0.904053 15.5362C2.03187 11.915 4.116 8.59204 6.90612 5.99586C9.62864 3.44549 13.0146 1.59337 16.6509 0.679691Z" fill="#FFCD0A"/>
<path d="M15.589 8.40294C19.1277 6.71177 23.3373 6.47406 27.0524 7.73315C31.0254 9.0492 34.3575 12.0812 36.0536 15.8659C34.857 16.0924 33.6766 16.3995 32.52 16.7796C31.3822 14.5684 29.5121 12.7373 27.2577 11.6491C24.5414 10.3182 21.2907 10.1114 18.423 11.0858C15.5427 12.0366 13.0968 14.166 11.7437 16.8514C10.5921 16.4663 9.41925 16.1482 8.2276 15.9129C9.67711 12.6507 12.3333 9.93192 15.589 8.40294Z" fill="#FFCD0A"/>
<path d="M20.0058 14.3621C22.5343 13.6502 25.3995 14.2655 27.3797 15.9852C28.1058 16.598 28.7091 17.3483 29.176 18.1716C28.1346 18.6978 27.1257 19.2846 26.1643 19.942C25.3181 18.309 23.3992 17.2913 21.5542 17.5736C20.0696 17.7593 18.744 18.7436 18.0956 20.0695C17.1343 19.4096 16.1317 18.8079 15.094 18.2743C16.1079 16.3851 17.9167 14.9291 20.0058 14.3621Z" fill="#FFCD0A"/>
<path d="M31.0611 20.9457C35.0654 18.9945 39.6718 18.3037 44.0854 18.9438C44.2443 20.1038 44.322 21.2775 44.2907 22.4474C39.6981 21.5957 34.795 22.5019 30.8483 24.9842C27.5024 27.0678 24.8437 30.2174 23.398 33.8598C22.1149 37.0589 21.7682 40.6096 22.3841 43.9944C21.1949 44.034 20.0145 43.8582 18.8367 43.727C18.1532 38.9197 19.1245 33.8944 21.5917 29.695C23.7835 25.94 27.1206 22.8461 31.0611 20.9457Z" fill="#02A9E0"/>
<path d="M29.9105 30.232C32.6969 27.3424 36.6974 25.6538 40.7342 25.65C41.8095 25.6401 42.886 25.7478 43.9412 25.9596C43.7196 27.1233 43.413 28.271 43.0099 29.3877C40.5427 28.9284 37.9278 29.2726 35.681 30.3856C33.5618 31.4193 31.7818 33.1155 30.649 35.1657C29.3773 37.4486 28.9329 40.1686 29.4111 42.7314C28.2795 43.1275 27.1129 43.421 25.9325 43.6289C24.9461 38.8749 26.4607 33.6924 29.9105 30.232Z" fill="#02A9E0"/>
<path d="M35.1868 35.0865C36.7965 33.4746 39.1285 32.6389 41.4079 32.7986C39.4201 36.311 36.4122 39.2427 32.8573 41.1963C32.7096 38.9542 33.5633 36.6651 35.1868 35.0865Z" fill="#02A9E0"/>
<path d="M92.9932 3.36615C93.6365 3.10218 94.4243 3.66517 94.335 4.36132C94.3314 5.18011 93.1955 5.59943 92.6252 5.03177C92.0725 4.56105 92.3006 3.57173 92.9932 3.36615Z" fill="#111C4E"/>
<path d="M91.6712 5.55274C92.3309 5.27242 93.1352 5.87395 93.0212 6.58295C92.9706 7.3959 91.8252 7.75215 91.2784 7.17281C90.7622 6.69508 91.0021 5.75481 91.6712 5.55274Z" fill="#111C4E"/>
<path d="M94.2591 5.55789C94.9211 5.26588 95.749 5.86625 95.6314 6.58692C95.5749 7.36951 94.506 7.7351 93.9369 7.2235C93.3665 6.77498 93.5688 5.77397 94.2591 5.55789Z" fill="#111C4E"/>
<path d="M71.7281 8.40518C72.2619 8.16456 72.8758 8.26852 73.4096 8.46007C73.0698 9.34661 73.0016 10.3056 73.0239 11.247C73.0157 12.13 72.9839 13.0972 73.5061 13.8599C74.1187 14.7791 75.7603 14.6939 76.2295 13.6753C76.7293 12.7386 76.4035 11.6383 76.7328 10.6583C77.008 9.7122 77.7076 8.87239 78.6413 8.51147C79.4139 8.21595 80.2817 8.19843 81.0814 8.3935C82.1609 8.66331 83.0181 9.55335 83.3427 10.5976C83.699 11.6243 83.3368 12.8063 83.9436 13.7641C84.4833 14.7394 86.1202 14.7382 86.6646 13.7711C87.1621 12.8998 87.0292 11.859 87.0468 10.8989C87.0598 10.4516 87.0057 9.90259 87.3749 9.57321C87.9088 9.22046 88.6038 9.34194 89.1741 9.53934C88.866 10.4259 88.7766 11.3731 88.8189 12.3052C88.8625 12.9173 88.9906 13.5761 89.4304 14.0386C90.0937 14.7534 91.4648 14.6051 91.9046 13.7162C92.4878 12.6043 92.1292 11.3147 92.3044 10.1269C92.3455 9.84536 92.5066 9.56503 92.7865 9.46224C93.3086 9.25901 93.8825 9.36179 94.394 9.54401C94.0506 10.4597 93.9695 11.4514 94.0295 12.422C94.0742 12.9909 94.2364 13.5796 94.6257 14.0152C95.2324 14.6997 96.4907 14.6413 97.0128 13.8821C97.3573 13.3868 97.442 12.7678 97.4679 12.1803C97.4832 11.2377 97.4561 10.2962 97.4785 9.35479C97.5008 8.99854 97.5761 8.55352 97.9477 8.39583C98.4792 8.17157 99.0883 8.26034 99.6092 8.47059C99.1812 9.5405 99.2259 10.7074 99.2341 11.8369C99.2459 12.7164 99.0624 13.631 98.525 14.3493C97.3256 16.0441 94.481 16.1305 93.1405 14.5619C91.8493 16.05 89.207 16.0581 87.9182 14.563C86.6117 16.0511 83.9471 16.0663 82.6465 14.563C81.353 16.0464 78.7154 16.0593 77.4242 14.563C76.8163 15.2779 75.8885 15.6668 74.9536 15.668C73.9129 15.7334 72.8346 15.3655 72.1514 14.563C70.8602 16.0511 68.2214 16.0558 66.9326 14.563C66.4246 15.1447 65.7085 15.536 64.9371 15.6283C64.0975 15.7194 63.2508 15.6411 62.4077 15.6809C62.1701 16.7917 61.561 17.844 60.6203 18.5087C59.5796 19.2819 58.2061 19.477 56.9455 19.2889C56.0142 19.1558 55.1228 18.7201 54.4784 18.0356C53.5882 17.1409 53.139 15.8841 53.1038 14.6401C53.092 14.0199 53.0849 13.3973 53.1061 12.776C53.1285 12.4326 53.219 12.0086 53.5777 11.8626C54.1033 11.6418 54.703 11.7271 55.2193 11.935C54.8512 13.0283 54.7712 14.215 54.9441 15.3526C55.1099 16.2906 55.5567 17.2437 56.3822 17.7763C57.3853 18.3977 58.834 18.2996 59.6737 17.4458C60.4427 16.683 60.752 15.5746 60.779 14.5198C60.7896 13.1929 60.7755 11.8661 60.7849 10.5392C60.799 10.1712 60.8449 9.7122 61.2071 9.51364C61.7468 9.24266 62.3889 9.34427 62.931 9.55802C62.3336 11.136 62.6064 12.8484 62.5453 14.493C63.2308 14.4754 63.9176 14.521 64.602 14.4673C65.1876 14.417 65.6662 13.9662 65.8414 13.423C66.2047 12.3917 65.9872 11.2832 66.0824 10.218C66.1201 9.94581 66.2247 9.64212 66.4893 9.50897C67.0244 9.24616 67.6547 9.34311 68.1897 9.55919C67.8769 10.4317 67.7934 11.3696 67.8322 12.2912C67.8722 12.8939 67.998 13.5375 68.412 14.0047C68.9411 14.6133 69.9665 14.6425 70.5768 14.1414C71.0684 13.7127 71.2083 13.0306 71.2577 12.4127C71.3024 11.4421 71.2647 10.4703 71.2765 9.49845C71.2859 9.10716 71.3282 8.60374 71.7281 8.40518ZM79.4586 9.54518C78.7754 9.8185 78.4602 10.5695 78.3662 11.2493C78.2615 12.0973 78.2874 13.0247 78.733 13.7805C79.2293 14.6413 80.5981 14.7336 81.2319 13.986C81.647 13.4885 81.734 12.8133 81.7646 12.1896C81.7857 11.4199 81.7011 10.5801 81.1954 9.95983C80.7921 9.45641 80.0477 9.31157 79.4586 9.54518Z" fill="#111C4E"/>
<path d="M105.56 5.55331C106.257 5.40614 106.926 6.13499 106.699 6.81245C106.502 7.59854 105.318 7.78659 104.861 7.12549C104.41 6.54731 104.833 5.62106 105.56 5.55331Z" fill="#111C4E"/>
<path d="M108.04 5.57933C108.713 5.3539 109.47 5.99165 109.33 6.69013C109.239 7.4949 108.096 7.81611 107.558 7.23443C107.033 6.72284 107.326 5.74052 108.04 5.57933Z" fill="#111C4E"/>
<path d="M126.031 5.68417C126.567 5.43655 127.188 5.54284 127.722 5.74141C127.191 7.16758 127.399 8.71055 127.358 10.1963C127.316 11.4461 127.529 12.7776 126.955 13.9433C126.461 14.9911 125.394 15.7526 124.222 15.811C123.008 15.8612 121.791 15.818 120.578 15.8332C119.576 15.8612 118.555 15.484 117.901 14.7131C117.286 15.4326 116.349 15.825 115.406 15.8297C114.195 15.832 112.985 15.8414 111.775 15.825C110.855 15.8075 109.949 15.4151 109.348 14.7166C108.013 16.2338 105.278 16.2292 104.004 14.6383C103.232 13.7097 103.042 12.4237 103.239 11.2639C103.39 10.3002 103.948 9.39969 104.772 8.86356C105.342 8.49563 106.029 8.34262 106.704 8.34495C107.88 8.34262 109.056 8.34729 110.233 8.34378C110.234 9.62278 110.231 10.9006 110.233 12.1796C110.239 12.8746 110.374 13.6151 110.839 14.1594C111.12 14.4911 111.563 14.6465 111.994 14.6371C113.055 14.6406 114.117 14.6371 115.179 14.6383C115.617 14.6465 116.085 14.5379 116.394 14.2108C116.854 13.7401 116.967 13.0521 117.004 12.4226C117.029 11.4484 116.999 10.4743 117.017 9.50014C117.032 9.13805 117.092 8.68719 117.451 8.49913C117.991 8.24684 118.623 8.33561 119.162 8.54936C118.736 9.70922 118.782 10.9602 118.793 12.1749C118.814 12.8699 118.923 13.6291 119.41 14.1664C119.701 14.497 120.146 14.65 120.581 14.6383C121.681 14.636 122.78 14.6453 123.88 14.6336C124.363 14.6336 124.853 14.4105 125.12 13.9994C125.518 13.399 125.568 12.6503 125.57 11.9518C125.567 10.2337 125.567 8.51549 125.57 6.79731C125.581 6.39784 125.619 5.88274 126.031 5.68417ZM105.017 11.2674C104.897 12.1866 104.904 13.2145 105.449 14.0099C105.94 14.7411 107.093 14.8497 107.732 14.2529C108.254 13.7518 108.408 12.9984 108.436 12.3046C108.452 11.383 108.439 10.4614 108.442 9.53868C107.75 9.55504 107.056 9.50715 106.366 9.56438C105.555 9.69987 105.132 10.5327 105.017 11.2674Z" fill="#111C4E"/>
<path d="M130.825 9.03354C131.555 8.47639 132.516 8.31403 133.417 8.35608C134.231 8.39579 135.04 8.7135 135.615 9.29634C136.316 9.98548 136.665 10.9736 136.665 11.9431C136.673 12.6661 136.732 13.4475 137.18 14.0502C137.469 14.4497 137.968 14.6576 138.458 14.6389C139.833 14.6389 141.207 14.6401 142.583 14.6389C143.047 14.6471 143.538 14.4894 143.834 14.118C144.248 13.6076 144.337 12.9254 144.364 12.2923C144.389 11.324 144.357 10.3546 144.379 9.38512C144.395 9.04055 144.496 8.6294 144.848 8.47872C145.382 8.25329 145.991 8.34206 146.517 8.54997C146.07 9.75071 146.146 11.0484 146.152 12.3052C146.178 12.9721 146.317 13.6881 146.787 14.1951C147.091 14.5221 147.548 14.6541 147.987 14.6401C149.99 14.6389 151.995 14.6401 154 14.6389C154.004 12.9616 153.993 11.2855 154.005 9.60938C154.02 9.22509 154.046 8.74971 154.408 8.52194C154.953 8.23344 155.61 8.34089 156.165 8.54647C155.886 9.29868 155.799 10.1035 155.791 10.9012C156.763 9.84415 157.924 8.86534 159.345 8.49274C160.469 8.18204 161.783 8.36659 162.663 9.16553C163.359 9.77407 163.75 10.6723 163.822 11.5822C163.931 12.7198 163.681 13.9556 162.874 14.8118C162.234 15.5091 161.27 15.8385 160.334 15.8327C156.142 15.8315 151.949 15.8373 147.757 15.8303C146.807 15.8303 145.871 15.4262 145.247 14.7113C144.89 15.119 144.441 15.4507 143.924 15.6259C143.192 15.8934 142.402 15.8268 141.639 15.8327C140.503 15.828 139.368 15.8432 138.233 15.8268C137.302 15.8128 136.383 15.4227 135.773 14.7172C135.409 15.0921 134.99 15.4273 134.492 15.6049C133.543 15.9611 132.513 15.7953 131.524 15.8338C130.94 15.8198 130.201 15.9331 129.794 15.4157C129.488 15.0185 129.822 14.5478 130.103 14.2488C130.684 14.7768 131.505 14.6191 132.221 14.6389C132.884 14.6214 133.673 14.7662 134.191 14.2441C134.91 13.4837 134.944 12.3414 134.829 11.3614C134.723 10.6022 134.302 9.72852 133.471 9.56733C132.854 9.49141 132.133 9.51243 131.661 9.97497C131.352 10.2425 131.211 10.6349 131.098 11.0134C130.799 10.9036 130.438 10.7984 130.314 10.4714C130.136 9.94694 130.392 9.35591 130.825 9.03354ZM159.395 9.72151C157.878 10.2985 156.704 11.5133 155.81 12.825C155.761 13.4265 155.807 14.0327 155.79 14.6366C157.303 14.6401 158.817 14.6413 160.33 14.6378C160.818 14.6483 161.323 14.445 161.599 14.0327C161.988 13.4604 162.049 12.7409 162.055 12.0693C162.051 11.3042 161.906 10.4655 161.337 9.90606C160.817 9.41548 160.016 9.47856 159.395 9.72151Z" fill="#111C4E"/>
<path d="M116.286 16.6896C116.841 16.5063 117.521 16.8543 117.6 17.4512C117.762 18.145 117.02 18.7933 116.346 18.6146C115.857 18.5316 115.502 18.0376 115.562 17.5517C115.58 17.1463 115.896 16.7913 116.286 16.6896Z" fill="#111C4E"/>
<path d="M118.863 16.6998C119.508 16.4499 120.298 16.9766 120.222 17.681C120.225 18.4857 119.137 18.9343 118.535 18.4203C117.924 17.9706 118.113 16.8855 118.863 16.6998Z" fill="#111C4E"/>
<path d="M143.676 16.6806C144.307 16.4844 145.03 17.0041 144.965 17.6769C144.965 18.4934 143.853 18.9431 143.255 18.4046C142.641 17.9257 142.891 16.8137 143.676 16.6806Z" fill="#111C4E"/>
<path d="M146.262 16.6874C146.897 16.4713 147.647 16.9888 147.582 17.6744C147.582 18.5049 146.439 18.9534 145.847 18.3846C145.27 17.901 145.51 16.8428 146.262 16.6874Z" fill="#111C4E"/>
<path d="M62.3829 25.3703C62.885 25.3154 63.4365 25.2103 63.908 25.4521C64.1997 25.6005 64.2914 25.9544 64.2538 26.2557C64.162 27.4997 64.0927 28.7448 64.0938 29.9923C64.9088 29.3931 65.953 29.0929 66.9607 29.2576C67.5405 29.3568 68.0955 29.7213 68.3295 30.2691C68.6317 30.9535 68.5424 31.7186 68.5341 32.444C68.5106 33.7825 68.3871 35.1736 68.9046 36.4445C68.3871 36.636 67.7745 36.7376 67.2665 36.4678C66.9384 36.2623 66.9067 35.8312 66.8949 35.4843C66.8867 34.2754 66.9431 33.0677 66.9502 31.8599C66.9584 31.2724 66.7326 30.5716 66.1176 30.3695C65.3544 30.1534 64.596 30.6101 64.0739 31.1311C64.1327 32.9369 64.0586 34.7461 64.2032 36.5496C63.7587 36.5858 63.2989 36.657 62.8627 36.5286C62.6522 36.4667 62.4417 36.2938 62.4464 36.059C62.5099 32.4977 62.6028 28.9282 62.3829 25.3703Z" fill="#111C4E"/>
<path d="M54.1947 27.5917C54.8873 26.7472 56.0221 26.3805 57.091 26.3711C58.0165 26.3559 59.0172 26.5113 59.7474 27.1198C60.1331 27.4142 60.2484 28.0099 59.9579 28.407C59.758 28.6908 59.4041 28.7889 59.0901 28.8882C58.5351 27.6571 56.8147 27.1362 55.6764 27.8825C55.1602 28.2014 54.9838 28.8976 55.1719 29.4512C55.3542 29.9138 55.8269 30.1742 56.2761 30.3307C57.2886 30.6835 58.3728 30.8692 59.3029 31.4252C59.9438 31.7955 60.3178 32.5243 60.3448 33.2485C60.393 34.1747 60.1578 35.1874 59.4441 35.8322C58.7279 36.4349 57.7766 36.6942 56.8511 36.7175C55.8798 36.7421 54.8721 36.5739 54.0324 36.067C53.7091 35.8625 53.3822 35.539 53.4268 35.1255C53.4598 34.6361 53.9113 34.3289 54.3217 34.1467C55.0896 35.3977 56.9146 35.8988 58.214 35.1933C58.8043 34.8872 59.076 34.1268 58.8561 33.5113C58.6527 33.0441 58.1599 32.7824 57.6955 32.6271C56.75 32.3374 55.7999 32.0314 54.9285 31.5583C53.5927 30.7828 53.2904 28.7971 54.1947 27.5917Z" fill="#111C4E"/>
<path d="M80.4751 30.0473C81.3241 29.3594 82.4883 29.0685 83.5619 29.2834C84.0687 29.3816 84.4826 29.7261 84.7472 30.1571C85.4434 29.5357 86.3735 29.1877 87.3107 29.2157C87.9986 29.1993 88.7336 29.496 89.0934 30.1034C89.4403 30.7073 89.4121 31.4256 89.3921 32.0984C89.3815 33.5526 89.2004 35.064 89.7543 36.4517C89.2534 36.6257 88.6783 36.7273 88.1762 36.5031C87.7858 36.3314 87.7435 35.8513 87.7282 35.4822C87.7282 34.3142 87.7811 33.1473 87.7893 31.9793C87.787 31.5074 87.7258 30.9829 87.3778 30.629C87.0944 30.3242 86.6381 30.2517 86.2465 30.351C85.7409 30.4515 85.3246 30.7703 84.926 31.0752C84.9601 32.9008 84.8989 34.7288 85.0365 36.5498C84.5344 36.5872 83.9817 36.6923 83.5172 36.4423C83.2996 36.3243 83.2573 36.0604 83.275 35.8384C83.3302 34.438 83.4278 33.0375 83.3796 31.6359C83.3596 31.0916 83.0609 30.4889 82.4894 30.3475C81.751 30.1828 81.0619 30.6267 80.528 31.0857C80.5762 32.9067 80.4962 34.7323 80.6526 36.5486C80.0964 36.5755 79.3815 36.7553 78.957 36.2916C78.7853 35.6539 78.9523 34.9718 78.9299 34.3165C78.937 32.6988 79.0663 31.0437 78.6665 29.4598C79.1275 29.3138 79.6531 29.2391 80.1129 29.4294C80.3645 29.5299 80.4116 29.8172 80.4751 30.0473Z" fill="#111C4E"/>
<path d="M71.1068 30.0107C71.756 29.4816 72.6179 29.2702 73.4422 29.2234C74.2219 29.1966 75.0732 29.2316 75.7282 29.7023C76.3127 30.1474 76.4455 30.9323 76.4714 31.6191C76.4843 33.2403 76.3033 34.8978 76.7289 36.4863C76.2503 36.6101 75.7094 36.7327 75.2449 36.5026C75.018 36.4022 74.9204 36.1662 74.8157 35.9618C74.1231 36.5482 73.1706 36.8507 72.2687 36.6697C71.6043 36.5423 71.0045 36.0494 70.8234 35.3918C70.68 34.8709 70.6729 34.3079 70.8152 33.787C70.974 33.2298 71.502 32.87 72.0335 32.7042C72.9342 32.4309 73.8867 32.4145 74.8204 32.3912C74.8087 31.8141 74.831 31.1892 74.5264 30.6741C74.2042 30.2373 73.5457 30.2595 73.0918 30.4616C72.6026 30.6613 72.2839 31.1086 72.0758 31.5747C71.6783 31.5175 71.215 31.521 70.9128 31.2161C70.5953 30.861 70.7576 30.2875 71.1068 30.0107ZM72.5215 34.0042C72.224 34.5146 72.4192 35.3264 73.006 35.5495C73.628 35.7773 74.3418 35.5297 74.7851 35.0636C74.7452 34.4854 74.7593 33.9061 74.7828 33.3279C74.0173 33.4763 73.1141 33.4167 72.5215 34.0042Z" fill="#111C4E"/>
<path d="M92.7262 29.6656C93.654 29.1528 94.7876 29.1096 95.8001 29.3665C96.3163 29.5394 96.9619 29.8454 96.9995 30.4633C97.0019 31.031 96.3657 31.2833 95.8977 31.3954C95.7142 31.1875 95.6378 30.8838 95.3803 30.7366C94.8758 30.4166 94.1855 30.3103 93.6317 30.5509C93.1295 30.7612 93.0496 31.4982 93.4612 31.8334C94.3419 32.5284 95.6354 32.2866 96.5033 33.0061C97.4475 33.7735 97.3088 35.4473 96.3034 36.1049C95.238 36.8396 93.8186 36.8583 92.6157 36.4857C92.1735 36.3257 91.6232 36.1119 91.5103 35.6015C91.435 35.0222 91.9818 34.6671 92.4287 34.437C92.8861 35.4321 94.162 35.709 95.1368 35.4076C95.6578 35.2476 95.7424 34.4907 95.3344 34.1683C94.7264 33.7034 93.9186 33.714 93.2177 33.4745C92.5286 33.2993 91.8913 32.7819 91.7278 32.0729C91.6314 31.6232 91.6255 31.1396 91.7772 30.7004C91.936 30.2437 92.3052 29.8898 92.7262 29.6656Z" fill="#111C4E"/>
<path d="M110.427 25.3716C110.942 25.3144 111.519 25.2011 111.991 25.4803C112.268 25.652 112.31 26.0059 112.281 26.3026C112.186 27.508 112.127 28.7169 112.13 29.927C112.922 29.3581 113.924 29.0498 114.901 29.1981C115.492 29.2857 116.067 29.6466 116.307 30.2073C116.597 30.8579 116.518 31.5867 116.51 32.2794C116.492 33.625 116.357 35.0243 116.873 36.3056C116.371 36.4901 115.784 36.5883 115.286 36.343C114.955 36.1666 114.909 35.7461 114.889 35.4144C114.875 34.1728 114.95 32.9323 114.943 31.6907C114.939 31.1254 114.685 30.4689 114.091 30.2949C113.35 30.1057 112.647 30.5484 112.122 31.0249C112.153 32.8132 112.089 34.6049 112.239 36.3885C111.745 36.4598 111.199 36.5404 110.736 36.3103C110.349 36.072 110.534 35.5604 110.51 35.1925C110.567 31.9196 110.651 28.6398 110.427 25.3716Z" fill="#111C4E"/>
<path d="M102.847 26.5225C104.353 26.3403 105.934 26.1943 107.405 26.6627C108.333 26.9512 109.119 27.7034 109.326 28.6647C109.575 29.8362 109.456 31.2414 108.529 32.1046C107.51 33.0915 105.817 33.2095 104.623 32.4737C104.638 33.7737 104.572 35.0994 104.917 36.3667C104.412 36.4683 103.872 36.5443 103.373 36.3866C102.985 36.2417 103.007 35.7582 103.006 35.4194C103.043 33.512 103.042 31.6035 103.036 29.6961C103.025 28.6367 102.982 27.5749 102.847 26.5225ZM104.576 27.5738C104.649 28.8843 104.618 30.196 104.626 31.5065C105.304 31.7752 106.113 31.8745 106.788 31.5486C107.458 31.2005 107.734 30.4039 107.704 29.6902C107.698 29.0361 107.599 28.2547 106.999 27.8634C106.277 27.4196 105.384 27.492 104.576 27.5738Z" fill="#111C4E"/>
<path d="M161.935 29.2353C162.384 29.1839 162.895 29.0578 163.306 29.3112C163.646 29.5764 163.488 30.0588 163.451 30.4197C163.091 32.0911 162.487 33.703 161.786 35.2612C161.071 36.7866 160.324 38.3156 159.296 39.6612C159.082 39.9625 158.737 40.216 158.347 40.1646C157.898 40.1132 157.608 39.7289 157.384 39.3785C158.373 38.5983 159.129 37.5681 159.785 36.5063C159.245 34.7753 158.617 33.07 157.877 31.4137C157.607 30.8215 157.302 30.2398 156.882 29.7364C157.311 29.4748 157.789 29.1442 158.32 29.261C158.644 29.3159 158.845 29.6044 158.962 29.8859C159.644 31.4008 160.268 32.9426 160.779 34.5242C161.112 33.8502 161.305 33.1179 161.509 32.3983C161.768 31.3658 162.02 30.3064 161.935 29.2353Z" fill="#111C4E"/>
<path d="M118.728 29.8479C119.568 29.2756 120.627 29.1144 121.627 29.1751C122.227 29.2207 122.877 29.3503 123.323 29.786C123.776 30.259 123.876 30.9482 123.897 31.5754C123.911 33.1639 123.726 34.791 124.156 36.3457C123.688 36.4648 123.166 36.5874 122.707 36.3725C122.479 36.2709 122.37 36.0408 122.26 35.8352C121.629 36.3573 120.799 36.6517 119.973 36.5617C119.277 36.5022 118.601 36.0572 118.363 35.3902C118.172 34.8424 118.158 34.2315 118.315 33.6744C118.481 33.088 119.061 32.7376 119.618 32.5788C120.48 32.3416 121.382 32.3276 122.271 32.2996C122.255 31.7378 122.272 31.1374 121.992 30.6316C121.687 30.1866 121.032 30.1936 120.58 30.3887C120.087 30.5838 119.762 31.0264 119.562 31.496C119.147 31.4364 118.636 31.4446 118.356 31.079C118.074 30.655 118.335 30.1002 118.728 29.8479ZM119.991 33.9021C119.689 34.4336 119.921 35.2664 120.548 35.4474C121.149 35.6238 121.797 35.3785 122.23 34.9522C122.191 34.3799 122.202 33.8052 122.23 33.2329C121.473 33.3672 120.573 33.3181 119.991 33.9021Z" fill="#111C4E"/>
<path d="M125.613 29.3344C126.102 29.2795 126.636 29.1755 127.099 29.3986C127.403 29.5563 127.411 29.9265 127.436 30.2209C127.841 29.7175 128.368 29.214 129.05 29.1627C129.389 29.1451 129.856 29.2129 129.965 29.5925C130.084 30.0842 129.728 30.5082 129.471 30.889C128.778 30.3143 127.714 30.7652 127.364 31.4987C127.313 33.1013 127.174 34.7692 127.717 36.311C127.234 36.4874 126.683 36.575 126.192 36.3823C125.813 36.2328 125.739 35.7726 125.724 35.4175C125.73 33.3898 125.818 31.355 125.613 29.3344Z" fill="#111C4E"/>
<path d="M130.998 29.4101C131.456 29.2606 131.975 29.1871 132.432 29.3786C132.676 29.4756 132.716 29.7582 132.789 29.9766C133.644 29.312 134.795 29.0083 135.862 29.2396C136.348 29.3412 136.747 29.6765 136.999 30.0946C137.803 29.3868 138.917 29.0399 139.982 29.2011C140.563 29.2957 141.132 29.6473 141.373 30.1974C141.672 30.8468 141.593 31.578 141.584 32.2707C141.569 33.6197 141.428 35.0214 141.947 36.3039C141.444 36.4966 140.851 36.5877 140.35 36.3424C140.018 36.1696 139.971 35.7549 139.949 35.4232C139.934 34.1792 140.02 32.9341 140.001 31.6901C139.996 31.1272 139.755 30.4649 139.158 30.2932C138.418 30.1133 137.718 30.556 137.18 31.0162C137.208 32.815 137.175 34.6161 137.275 36.4137C136.79 36.4405 136.261 36.5433 135.808 36.3144C135.608 36.2174 135.533 35.9873 135.553 35.7806C135.59 34.379 135.709 32.9762 135.656 31.5733C135.638 31.0068 135.31 30.3714 134.702 30.2687C133.993 30.1612 133.347 30.5677 132.842 31.0174C132.882 32.8126 132.813 34.6137 132.962 36.4055C132.463 36.4429 131.916 36.5503 131.452 36.3074C131.217 36.1836 131.201 35.8974 131.212 35.6661C131.264 33.9339 131.36 32.1947 131.198 30.4649C131.164 30.1075 131.096 29.7547 130.998 29.4101Z" fill="#111C4E"/>
<path d="M143.722 29.9059C144.494 29.3254 145.502 29.1478 146.452 29.163C147.126 29.1887 147.869 29.2903 148.376 29.7762C148.846 30.2411 148.939 30.9407 148.967 31.5691C148.977 33.16 148.796 34.7871 149.223 36.3441C148.749 36.4667 148.216 36.5905 147.754 36.3616C147.529 36.2623 147.429 36.0299 147.336 35.822C146.654 36.4048 145.716 36.6991 144.826 36.5286C144.15 36.4025 143.542 35.8944 143.375 35.2204C143.25 34.7158 143.237 34.1727 143.383 33.6704C143.55 33.0911 144.119 32.7418 144.671 32.583C145.532 32.3424 146.437 32.326 147.327 32.2992C147.327 31.7385 147.341 31.137 147.06 30.6312C146.773 30.2014 146.155 30.199 145.714 30.3602C145.19 30.5436 144.839 31.0038 144.629 31.4944C144.212 31.436 143.695 31.443 143.418 31.0692C143.167 30.6803 143.371 30.1605 143.722 29.9059ZM145.383 33.6506C144.656 33.9671 144.853 35.1445 145.524 35.4131C146.14 35.6479 146.85 35.4026 147.295 34.9471C147.261 34.3759 147.275 33.8036 147.298 33.2324C146.657 33.3422 145.965 33.3305 145.383 33.6506Z" fill="#111C4E"/>
<path d="M151.115 30.6051C152.142 29.1895 154.282 28.7141 155.788 29.6439C156.217 29.8821 156.519 30.4077 156.359 30.8936C156.146 31.2966 155.638 31.3644 155.232 31.4415C155.052 30.5818 153.999 30.0094 153.201 30.444C152.41 30.8995 152.136 31.8806 152.136 32.7356C152.14 33.5299 152.238 34.4351 152.864 35.004C153.646 35.7573 155.108 35.6125 155.677 34.6711C155.965 34.8685 156.335 35.0682 156.398 35.4466C156.46 35.8438 156.118 36.151 155.776 36.2759C154.515 36.77 152.997 36.6684 151.876 35.8835C151.018 35.3322 150.549 34.3253 150.487 33.3325C150.425 32.3934 150.551 31.3877 151.115 30.6051Z" fill="#111C4E"/>
</svg>
