<svg width="91" height="96" viewBox="0 0 91 96" fill="none" xmlns="http://www.w3.org/2000/svg">
<path d="M15.4574 25.8323C21.4343 24.9628 27.674 25.8998 33.088 28.5825C36.6725 30.3231 39.8975 32.7913 42.5222 35.7812C41.5354 37.0964 40.6486 38.4808 39.8449 39.9124C36.9963 36.2928 33.1474 33.4666 28.827 31.8391C24.505 30.188 19.7302 29.7828 15.1827 30.6202C15.1556 29.0197 15.2437 27.4193 15.4574 25.8323Z" fill="#2B9A47"/>
<path d="M15.674 35.3969C21.1033 34.2607 26.9632 35.434 31.5175 38.5894C33.9676 40.2625 36.0413 42.4758 37.5521 45.0217C36.4025 48.2328 35.7683 51.6127 35.5767 55.0129C35.4106 50.5001 33.2538 46.087 29.6863 43.2777C26.1697 40.4347 21.3864 39.2259 16.9355 40.0852C16.3862 38.5607 15.9572 36.9923 15.674 35.3969Z" fill="#2B9A47"/>
<path d="M19.0648 44.7304C21.9812 44.5193 24.9638 45.5424 27.1171 47.5143C29.3892 49.5487 30.6931 52.5791 30.6575 55.6163C30.2217 55.5775 29.7334 55.6889 29.3553 55.4239C25.1079 52.78 21.5268 49.0777 19.0648 44.7304Z" fill="#2B9A47"/>
<path d="M37.7404 0.926864C45.0009 -0.928541 52.9532 0.0202648 59.5371 3.60614C66.4229 7.29501 71.747 13.7577 74.0021 21.2164C72.3387 21.0611 70.6669 21.0071 68.9984 21.0797C67.0061 15.7684 63.1555 11.1831 58.2722 8.27251C52.8667 5.00572 46.2115 3.90159 40.0278 5.19649C34.9376 6.23815 30.207 8.89717 26.6632 12.6789C24.3759 15.1015 22.5853 17.98 21.4035 21.0898C19.7385 21.0122 18.07 21.0426 16.41 21.1861C17.9378 16.2479 20.7609 11.7166 24.5403 8.17628C28.2282 4.69845 32.8148 2.1728 37.7404 0.926864Z" fill="#FFCD0A"/>
<path d="M36.3177 11.458C41.1111 9.15187 46.8134 8.82772 51.8458 10.5447C57.2276 12.3393 61.7412 16.4739 64.0387 21.6349C62.4178 21.9439 60.8188 22.3626 59.2521 22.8809C57.7108 19.8656 55.1776 17.3687 52.1239 15.8847C48.4445 14.0698 44.0411 13.7879 40.1565 15.1165C36.255 16.4131 32.9418 19.3169 31.1089 22.9788C29.549 22.4537 27.9602 22.0198 26.346 21.6991C28.3095 17.2505 31.9075 13.5431 36.3177 11.458Z" fill="#FFCD0A"/>
<path d="M42.2805 19.586C45.7056 18.6153 49.5868 19.4544 52.2692 21.7994C53.2526 22.6351 54.0699 23.6581 54.7023 24.7808C53.2916 25.4984 51.925 26.2986 50.6228 27.1951C49.4766 24.9682 46.8772 23.5805 44.378 23.9654C42.367 24.2186 40.5714 25.5608 39.6931 27.369C38.3909 26.4691 37.0327 25.6486 35.6271 24.921C37.0005 22.3447 39.4506 20.3593 42.2805 19.586Z" fill="#FFCD0A"/>
<path d="M57.2481 28.5617C62.6723 25.901 68.912 24.959 74.8906 25.8318C75.106 27.4137 75.2111 29.0142 75.1687 30.6096C68.9476 29.4481 62.306 30.6839 56.9599 34.0689C52.4276 36.9102 48.8262 41.2052 46.8678 46.172C45.1298 50.5345 44.6601 55.3765 45.4944 59.9922C43.8836 60.0462 42.2846 59.8065 40.6891 59.6275C39.7633 53.072 41.0791 46.2193 44.421 40.4927C47.39 35.3722 51.9104 31.1532 57.2481 28.5617Z" fill="#02A9E0"/>
<path d="M55.6832 41.2257C59.4575 37.2853 64.8766 34.9825 70.3448 34.9774C71.8013 34.9639 73.2595 35.1108 74.6889 35.3995C74.3888 36.9865 73.9734 38.5515 73.4274 40.0743C70.0854 39.4479 66.5434 39.9173 63.4998 41.435C60.6292 42.8447 58.2181 45.1577 56.6836 47.9534C54.9609 51.0666 54.3589 54.7757 55.0066 58.2704C53.4738 58.8107 51.8935 59.2108 50.2946 59.4944C48.9585 53.0115 51.0102 45.9444 55.6832 41.2257Z" fill="#02A9E0"/>
<path d="M62.8483 47.8455C65.0288 45.6474 68.1876 44.5078 71.2753 44.7256C68.5827 49.5152 64.5082 53.513 59.6928 56.1771C59.4927 53.1196 60.6491 49.998 62.8483 47.8455Z" fill="#02A9E0"/>
<path d="M32.5961 65.054C33.1188 64.8391 33.7591 65.2975 33.6865 65.8643C33.6836 66.531 32.7604 66.8724 32.2969 66.4102C31.8478 66.0269 32.0332 65.2214 32.5961 65.054Z" fill="white"/>
<path d="M31.537 66.8346C32.0731 66.6064 32.7268 67.0961 32.6341 67.6734C32.593 68.3353 31.6622 68.6254 31.2178 68.1537C30.7983 67.7647 30.9932 66.9991 31.537 66.8346Z" fill="white"/>
<path d="M33.6317 66.8388C34.1697 66.601 34.8425 67.0899 34.7469 67.6767C34.7011 68.3138 33.8324 68.6115 33.3698 68.195C32.9063 67.8298 33.0707 67.0147 33.6317 66.8388Z" fill="white"/>
<path d="M15.3227 69.1574C15.7566 68.9615 16.2554 69.0461 16.6893 69.2021C16.4131 69.9239 16.3577 70.7047 16.3758 71.4713C16.3691 72.1902 16.3433 72.9777 16.7677 73.5987C17.2655 74.3472 18.5996 74.2778 18.9809 73.4485C19.3871 72.6857 19.1224 71.7899 19.39 70.9919C19.6136 70.2216 20.1822 69.5378 20.941 69.2439C21.5689 69.0033 22.2741 68.9891 22.924 69.1479C23.8013 69.3676 24.4979 70.0923 24.7617 70.9425C25.0513 71.7784 24.7569 72.7409 25.25 73.5207C25.6887 74.3149 27.019 74.3139 27.4614 73.5265C27.8657 72.817 27.7577 71.9696 27.772 71.1879C27.7825 70.8236 27.7386 70.3766 28.0386 70.1084C28.4725 69.8212 29.0373 69.9201 29.5008 70.0808C29.2504 70.8027 29.1778 71.574 29.2122 72.3329C29.2475 72.8312 29.3517 73.3676 29.7091 73.7442C30.2481 74.3263 31.3624 74.2055 31.7198 73.4818C32.1938 72.5764 31.9024 71.5264 32.0447 70.5592C32.0782 70.33 32.2091 70.1018 32.4366 70.0181C32.8609 69.8526 33.3272 69.9363 33.7429 70.0847C33.4639 70.8303 33.3979 71.6377 33.4467 72.428C33.483 72.8912 33.6149 73.3705 33.9312 73.7252C34.4243 74.2825 35.4469 74.235 35.8712 73.6168C36.1512 73.2136 36.22 72.7095 36.241 72.2311C36.2534 71.4637 36.2315 70.6971 36.2496 69.9306C36.2678 69.6405 36.3289 69.2782 36.6309 69.1498C37.0629 68.9672 37.5579 69.0395 37.9813 69.2106C37.6334 70.0818 37.6697 71.0319 37.6764 71.9515C37.686 72.6677 37.5369 73.4123 37.1002 73.9972C36.1254 75.3772 33.8137 75.4475 32.7242 74.1703C31.6749 75.3819 29.5275 75.3886 28.4802 74.1713C27.4184 75.3829 25.2529 75.3952 24.196 74.1713C23.1447 75.3791 21.0012 75.3895 19.9519 74.1713C19.4578 74.7533 18.7038 75.07 17.9441 75.0709C17.0983 75.1242 16.222 74.8246 15.6667 74.1713C14.6174 75.3829 12.4729 75.3867 11.4255 74.1713C11.0127 74.6449 10.4307 74.9635 9.8038 75.0386C9.12146 75.1128 8.43339 75.0491 7.74819 75.0814C7.55514 75.9858 7.06011 76.8427 6.29559 77.3839C5.44984 78.0134 4.33363 78.1723 3.30917 78.0192C2.55229 77.9107 1.82791 77.556 1.30421 76.9987C0.580776 76.2702 0.215716 75.2469 0.187047 74.234C0.17749 73.729 0.171756 73.2221 0.188958 72.7162C0.207115 72.4366 0.280701 72.0913 0.572175 71.9725C0.999353 71.7927 1.48674 71.8621 1.90627 72.0314C1.60715 72.9216 1.54216 73.8878 1.68265 74.8142C1.81739 75.5778 2.18054 76.3539 2.85141 76.7876C3.66658 77.2935 4.84395 77.2136 5.52629 76.5184C6.15129 75.8974 6.40262 74.9949 6.4246 74.1361C6.4332 73.0557 6.42174 71.9753 6.42938 70.8949C6.44085 70.5954 6.47812 70.2216 6.77246 70.0599C7.21111 69.8393 7.73289 69.922 8.17345 70.0961C7.68798 71.3809 7.90969 72.7751 7.86 74.1142C8.41714 74.0999 8.97524 74.137 9.53144 74.0933C10.0074 74.0524 10.3963 73.6853 10.5387 73.243C10.834 72.4033 10.6572 71.5007 10.7346 70.6334C10.7652 70.4118 10.8502 70.1645 11.0653 70.0561C11.5001 69.8421 12.0123 69.9211 12.4471 70.097C12.1929 70.8074 12.1251 71.5711 12.1566 72.3215C12.1891 72.8122 12.2914 73.3362 12.6278 73.7167C13.0578 74.2122 13.8911 74.2359 14.3871 73.8279C14.7866 73.4789 14.9003 72.9235 14.9404 72.4204C14.9768 71.6301 14.9462 70.8388 14.9557 70.0476C14.9634 69.729 14.9978 69.3191 15.3227 69.1574ZM21.6052 70.0856C21.0499 70.3081 20.7938 70.9197 20.7174 71.4732C20.6323 72.1636 20.6533 72.9187 21.0155 73.5341C21.4188 74.235 22.5312 74.3101 23.0463 73.7014C23.3836 73.2963 23.4544 72.7466 23.4792 72.2387C23.4964 71.612 23.4276 70.9282 23.0167 70.4232C22.6889 70.0133 22.084 69.8954 21.6052 70.0856Z" fill="white"/>
<path d="M42.8083 66.8339C43.375 66.7141 43.9187 67.3076 43.7343 67.8592C43.5738 68.4992 42.6114 68.6523 42.2406 68.114C41.8736 67.6433 42.2177 66.8891 42.8083 66.8339Z" fill="white"/>
<path d="M44.8361 66.8559C45.3827 66.6724 45.9982 67.1916 45.8845 67.7604C45.8099 68.4156 44.881 68.6772 44.4443 68.2035C44.0171 67.787 44.2551 66.9872 44.8361 66.8559Z" fill="white"/>
<path d="M59.4482 66.9416C59.8839 66.74 60.3885 66.8265 60.8224 66.9882C60.3914 68.1494 60.5605 69.4057 60.5271 70.6154C60.4927 71.633 60.6657 72.7172 60.1993 73.6664C59.7979 74.5194 58.9311 75.1395 57.9784 75.1871C56.9921 75.228 56.003 75.1928 55.0168 75.2051C54.2026 75.228 53.3731 74.9208 52.8417 74.2931C52.3419 74.8789 51.5802 75.1985 50.8138 75.2023C49.8295 75.2042 48.8461 75.2118 47.8627 75.1985C47.1154 75.1842 46.3786 74.8647 45.8903 74.2959C44.8056 75.5313 42.5828 75.5275 41.5478 74.2322C40.9199 73.4762 40.7661 72.4291 40.9256 71.4847C41.0489 70.7001 41.5019 69.9668 42.1718 69.5303C42.6353 69.2307 43.1934 69.1061 43.742 69.108C44.6976 69.1061 45.6533 69.1099 46.6099 69.1071C46.6108 70.1485 46.608 71.1889 46.6099 72.2303C46.6147 72.7962 46.7246 73.3991 47.102 73.8423C47.3304 74.1124 47.6907 74.2389 48.0405 74.2313C48.9035 74.2341 49.7664 74.2313 50.6294 74.2322C50.9849 74.2389 51.3652 74.1504 51.6166 73.8841C51.9902 73.5009 52.082 72.9407 52.1125 72.4281C52.1326 71.6349 52.1087 70.8418 52.1231 70.0486C52.1355 69.7538 52.1842 69.3867 52.4757 69.2336C52.9143 69.0282 53.4285 69.1004 53.8662 69.2745C53.5202 70.2189 53.5575 71.2374 53.5661 72.2265C53.5833 72.7924 53.6722 73.4105 54.0678 73.848C54.3039 74.1172 54.6661 74.2417 55.0196 74.2322C55.9132 74.2303 56.8067 74.2379 57.7003 74.2284C58.093 74.2284 58.4915 74.0468 58.7085 73.712C59.0315 73.2232 59.0726 72.6136 59.0735 72.0448C59.0716 70.6459 59.0716 69.2469 59.0735 67.8479C59.0831 67.5227 59.1137 67.1033 59.4482 66.9416ZM42.3706 71.4875C42.2731 72.236 42.2789 73.0729 42.7223 73.7206C43.1208 74.3159 44.0583 74.4044 44.5772 73.9184C45.0015 73.5104 45.1267 72.897 45.1496 72.3321C45.1621 71.5817 45.1516 70.8313 45.1544 70.08C44.5915 70.0933 44.0277 70.0543 43.4667 70.1009C42.8083 70.2112 42.4643 70.8893 42.3706 71.4875Z" fill="white"/>
<path d="M63.3425 69.6694C63.936 69.2158 64.7167 69.0836 65.4488 69.1178C66.1101 69.1502 66.7676 69.4088 67.2349 69.8834C67.8044 70.4445 68.0883 71.2491 68.0883 72.0385C68.095 72.6271 68.1427 73.2634 68.5068 73.7541C68.7419 74.0794 69.1471 74.2487 69.5456 74.2335C70.6628 74.2335 71.78 74.2344 72.8981 74.2335C73.2746 74.2401 73.6741 74.1117 73.9149 73.8093C74.2513 73.3937 74.323 72.8383 74.3449 72.3228C74.366 71.5344 74.3392 70.745 74.3574 69.9557C74.3707 69.6751 74.4529 69.3404 74.7387 69.2177C75.1725 69.0341 75.6676 69.1064 76.0947 69.2757C75.7316 70.2534 75.7937 71.31 75.7985 72.3333C75.8195 72.8763 75.9323 73.4593 76.3145 73.8721C76.5611 74.1383 76.9329 74.2458 77.2893 74.2344C78.9178 74.2335 80.5471 74.2344 82.1765 74.2335C82.1794 72.8678 82.1708 71.503 82.1804 70.1383C82.1928 69.8254 82.2138 69.4383 82.5081 69.2529C82.9506 69.018 83.4848 69.1055 83.9359 69.2728C83.7094 69.8853 83.6387 70.5406 83.632 71.1901C84.4214 70.3294 85.3656 69.5325 86.52 69.2291C87.4336 68.9761 88.5011 69.1264 89.2168 69.7769C89.7826 70.2724 90.0999 71.0037 90.1582 71.7446C90.247 72.6709 90.0435 73.6771 89.3879 74.3742C88.868 74.942 88.0844 75.2102 87.3237 75.2054C83.9168 75.2045 80.5099 75.2092 77.103 75.2035C76.3308 75.2035 75.5701 74.8744 75.0626 74.2924C74.7731 74.6243 74.408 74.8944 73.9875 75.0371C73.3931 75.2549 72.7509 75.2007 72.1307 75.2054C71.2075 75.2016 70.2853 75.214 69.3631 75.2007C68.6062 75.1892 67.8589 74.8716 67.3639 74.2972C67.0676 74.6025 66.7274 74.8754 66.3222 75.02C65.551 75.31 64.7139 75.175 63.9101 75.2064C63.4361 75.1949 62.835 75.2872 62.5044 74.8659C62.2559 74.5425 62.5273 74.1593 62.7557 73.9158C63.2278 74.3457 63.8949 74.2173 64.4769 74.2335C65.0158 74.2192 65.6571 74.3371 66.0776 73.912C66.6624 73.2929 66.6901 72.3628 66.5965 71.5648C66.5105 70.9467 66.1684 70.2353 65.4927 70.104C64.991 70.0422 64.4052 70.0593 64.022 70.436C63.7706 70.6537 63.6559 70.9733 63.5642 71.2814C63.3215 71.192 63.0281 71.1064 62.9268 70.8402C62.7825 70.4131 62.9908 69.9319 63.3425 69.6694ZM86.5611 70.2296C85.3283 70.6994 84.3736 71.6885 83.6473 72.7565C83.6072 73.2463 83.6444 73.7399 83.631 74.2315C84.861 74.2344 86.0909 74.2354 87.3208 74.2325C87.7174 74.2411 88.1274 74.0756 88.352 73.7399C88.6683 73.2739 88.718 72.688 88.7228 72.1412C88.7189 71.5182 88.6014 70.8354 88.1389 70.3798C87.7165 69.9804 87.0657 70.0318 86.5611 70.2296Z" fill="white"/>
<path d="M51.5286 75.9012C51.9796 75.7519 52.532 76.0353 52.596 76.5213C52.7279 77.0862 52.1249 77.6141 51.5773 77.4685C51.1798 77.401 50.8911 76.9987 50.9399 76.6031C50.9542 76.2731 51.2113 75.984 51.5286 75.9012Z" fill="white"/>
<path d="M53.6312 75.9107C54.1549 75.7072 54.7971 76.1361 54.735 76.7096C54.7378 77.3649 53.8538 77.7301 53.3645 77.3116C52.8676 76.9455 53.0215 76.062 53.6312 75.9107Z" fill="white"/>
<path d="M73.7857 75.8955C74.2989 75.7357 74.8866 76.1589 74.8331 76.7067C74.8331 77.3715 73.93 77.7376 73.4436 77.2992C72.9447 76.9093 73.1483 76.0039 73.7857 75.8955Z" fill="white"/>
<path d="M75.8927 75.8999C76.4087 75.7239 77.0184 76.1452 76.9649 76.7035C76.9649 77.3797 76.036 77.7449 75.5553 77.2817C75.0861 76.888 75.2811 76.0263 75.8927 75.8999Z" fill="white"/>
<path d="M7.71777 82.9695C8.12584 82.9248 8.57404 82.8393 8.95726 83.0361C9.19426 83.1569 9.2688 83.4451 9.23822 83.6904C9.16368 84.7033 9.1073 85.7171 9.10825 86.7328C9.77052 86.2449 10.6191 86.0005 11.4381 86.1346C11.9093 86.2154 12.3603 86.5122 12.5505 86.9582C12.7961 87.5155 12.7235 88.1384 12.7168 88.729C12.6977 89.8189 12.5973 90.9516 13.0178 91.9863C12.5973 92.1423 12.0995 92.225 11.6866 92.0054C11.42 91.838 11.3942 91.487 11.3846 91.2046C11.3779 90.2203 11.4238 89.2369 11.4295 88.2535C11.4362 87.7751 11.2527 87.2045 10.7529 87.04C10.1327 86.864 9.51632 87.2359 9.09201 87.6601C9.13979 89.1304 9.07958 90.6035 9.19713 92.0719C8.83589 92.1014 8.46223 92.1594 8.10768 92.0548C7.93662 92.0044 7.76556 91.8636 7.76938 91.6725C7.82098 88.7728 7.89648 85.8664 7.71777 82.9695Z" fill="white"/>
<path d="M1.06092 84.7778C1.6238 84.0902 2.54601 83.7916 3.4147 83.784C4.1668 83.7716 4.98006 83.8981 5.57352 84.3936C5.88698 84.6333 5.98063 85.1183 5.74458 85.4417C5.58212 85.6728 5.29447 85.7527 5.03931 85.8335C4.58824 84.8311 3.19012 84.4069 2.26504 85.0147C1.84551 85.2743 1.70216 85.8411 1.85507 86.2919C2.0032 86.6685 2.38737 86.8806 2.75243 87.008C3.57525 87.2952 4.45636 87.4465 5.21228 87.8991C5.73312 88.2006 6.03701 88.7941 6.05899 89.3837C6.09818 90.1379 5.90704 90.9624 5.32696 91.4874C4.74497 91.9781 3.97184 92.1893 3.21974 92.2083C2.43037 92.2283 1.61138 92.0913 0.92904 91.6786C0.666235 91.5121 0.400563 91.2487 0.436877 90.912C0.463636 90.5135 0.830607 90.2634 1.16413 90.1151C1.78817 91.1336 3.27135 91.5416 4.32735 90.9672C4.80709 90.718 5.02784 90.0989 4.84913 89.5977C4.68381 89.2173 4.28339 89.0043 3.9059 88.8778C3.13756 88.6419 2.36539 88.3927 1.65725 88.0076C0.571625 87.3761 0.326021 85.7593 1.06092 84.7778Z" fill="white"/>
<path d="M22.4186 86.7782C23.1086 86.2181 24.0547 85.9813 24.9272 86.1563C25.3391 86.2361 25.6755 86.5167 25.8905 86.8676C26.4563 86.3617 27.2122 86.0783 27.9739 86.1011C28.5329 86.0878 29.1302 86.3293 29.4226 86.8239C29.7046 87.3156 29.6816 87.9005 29.6654 88.4483C29.6568 89.6323 29.5096 90.8629 29.9597 91.9928C29.5526 92.1345 29.0853 92.2172 28.6772 92.0346C28.36 91.8948 28.3256 91.5039 28.3131 91.2034C28.3131 90.2524 28.3561 89.3023 28.3628 88.3513C28.3609 87.967 28.3112 87.54 28.0283 87.2519C27.798 87.0036 27.4272 86.9447 27.109 87.0255C26.6981 87.1073 26.3598 87.3669 26.0358 87.6151C26.0635 89.1016 26.0138 90.59 26.1256 92.0727C25.7176 92.1031 25.2684 92.1887 24.8909 91.9852C24.7141 91.8891 24.6797 91.6742 24.6941 91.4935C24.739 90.3532 24.8183 89.2129 24.7791 88.0716C24.7629 87.6285 24.5201 87.1377 24.0557 87.0227C23.4555 86.8886 22.8955 87.25 22.4617 87.6237C22.5008 89.1064 22.4359 90.5928 22.563 92.0717C22.1109 92.0936 21.5299 92.24 21.1849 91.8625C21.0454 91.3432 21.1811 90.7878 21.1629 90.2543C21.1687 88.9371 21.2738 87.5895 20.9489 86.2999C21.3235 86.181 21.7506 86.1201 22.1243 86.2751C22.3288 86.3569 22.367 86.5909 22.4186 86.7782Z" fill="white"/>
<path d="M14.806 86.748C15.3336 86.3172 16.034 86.145 16.704 86.107C17.3376 86.0851 18.0295 86.1136 18.5618 86.4969C19.0367 86.8592 19.1447 87.4983 19.1657 88.0576C19.1762 89.3776 19.0291 90.7271 19.375 92.0205C18.9861 92.1213 18.5465 92.2212 18.169 92.0338C17.9845 91.952 17.9052 91.7599 17.8202 91.5935C17.2573 92.0709 16.4832 92.3173 15.7502 92.1698C15.2103 92.0662 14.7229 91.6648 14.5757 91.1294C14.4591 90.7052 14.4534 90.2468 14.569 89.8227C14.698 89.369 15.1271 89.0761 15.5591 88.9411C16.2911 88.7185 17.0652 88.7052 17.824 88.6862C17.8144 88.2164 17.8326 87.7076 17.5851 87.2882C17.3232 86.9325 16.7881 86.9505 16.4192 87.1151C16.0216 87.2777 15.7626 87.6419 15.5935 88.0214C15.2705 87.9748 14.894 87.9777 14.6484 87.7294C14.3903 87.4403 14.5222 86.9734 14.806 86.748ZM15.9557 89.9996C15.7139 90.4152 15.8725 91.0761 16.3494 91.2578C16.855 91.4432 17.435 91.2416 17.7953 90.8622C17.7628 90.3914 17.7743 89.9197 17.7934 89.4489C17.1713 89.5697 16.4373 89.5212 15.9557 89.9996Z" fill="white"/>
<path d="M32.3732 86.4662C33.1272 86.0487 34.0485 86.0135 34.8713 86.2228C35.2908 86.3635 35.8155 86.6127 35.8461 87.1158C35.848 87.578 35.331 87.7834 34.9506 87.8747C34.8015 87.7054 34.7394 87.4582 34.5301 87.3383C34.1202 87.0777 33.5592 86.9912 33.1091 87.1871C32.701 87.3583 32.636 87.9584 32.9705 88.2314C33.6863 88.7972 34.7375 88.6004 35.4428 89.1862C36.2102 89.811 36.0974 91.1739 35.2803 91.7093C34.4145 92.3075 33.261 92.3227 32.2834 92.0193C31.9241 91.889 31.4768 91.715 31.3851 91.2994C31.3239 90.8277 31.7683 90.5386 32.1314 90.3512C32.5032 91.1615 33.5401 91.3869 34.3323 91.1415C34.7557 91.0112 34.8245 90.395 34.4929 90.1325C33.9988 89.754 33.3423 89.7625 32.7727 89.5676C32.2127 89.4249 31.6947 89.0036 31.5619 88.4263C31.4835 88.0602 31.4787 87.6664 31.602 87.3088C31.731 86.937 32.0311 86.6488 32.3732 86.4662Z" fill="white"/>
<path d="M46.7854 82.9706C47.204 82.924 47.6732 82.8318 48.0564 83.059C48.282 83.1989 48.3164 83.487 48.2925 83.7286C48.2151 84.7101 48.1673 85.6944 48.1701 86.6796C48.8133 86.2165 49.6275 85.9654 50.4217 86.0862C50.9024 86.1575 51.3697 86.4514 51.5646 86.9079C51.7997 87.4376 51.7357 88.0311 51.729 88.595C51.7147 89.6906 51.6048 90.83 52.0243 91.8733C51.6162 92.0235 51.1394 92.1034 50.7342 91.9037C50.4656 91.7601 50.4284 91.4177 50.4121 91.1476C50.4006 90.1367 50.4618 89.1267 50.4561 88.1157C50.4522 87.6554 50.2458 87.1209 49.7632 86.9792C49.1612 86.8252 48.5897 87.1856 48.1635 87.5736C48.1883 89.0297 48.1367 90.4886 48.2581 91.9408C47.8567 91.9988 47.4133 92.0644 47.0367 91.8771C46.7223 91.6831 46.8724 91.2665 46.8533 90.9669C46.8991 88.3021 46.9679 85.6316 46.7854 82.9706Z" fill="white"/>
<path d="M40.6116 83.9072C41.8358 83.7589 43.1202 83.64 44.3158 84.0213C45.0698 84.2562 45.7091 84.8687 45.8773 85.6514C46.0789 86.6053 45.9824 87.7494 45.2294 88.4522C44.4008 89.2558 43.0256 89.3519 42.0547 88.7527C42.0671 89.8113 42.0136 90.8907 42.2936 91.9226C41.8836 92.0053 41.445 92.0671 41.0388 91.9387C40.7234 91.8208 40.7416 91.4271 40.7406 91.1513C40.7712 89.5982 40.7703 88.0442 40.7655 86.4912C40.7559 85.6286 40.7215 84.7641 40.6116 83.9072ZM42.0164 84.7631C42.0757 85.8302 42.0508 86.8982 42.0575 87.9653C42.608 88.184 43.2655 88.2649 43.814 87.9995C44.3588 87.7161 44.5833 87.0675 44.5585 86.4864C44.5537 85.9538 44.4734 85.3176 43.986 84.999C43.3993 84.6376 42.673 84.6966 42.0164 84.7631Z" fill="white"/>
<path d="M88.6296 86.1155C88.9947 86.0737 89.4095 85.971 89.7439 86.1773C90.0201 86.3932 89.8921 86.786 89.8615 87.0799C89.569 88.4408 89.0778 89.7532 88.5083 91.0219C87.9272 92.264 87.3204 93.5089 86.4852 94.6045C86.3112 94.8498 86.0303 95.0562 85.7139 95.0144C85.3489 94.9725 85.1128 94.6596 84.9313 94.3743C85.735 93.739 86.3494 92.9002 86.8827 92.0357C86.4431 90.6263 85.9328 89.2378 85.3317 87.8892C85.1119 87.407 84.8644 86.9334 84.5232 86.5235C84.872 86.3105 85.26 86.0413 85.692 86.1364C85.9548 86.1811 86.1182 86.416 86.2137 86.6452C86.768 87.8787 87.2745 89.1341 87.6902 90.4218C87.9607 89.8731 88.1174 89.2768 88.2837 88.6909C88.4939 87.8502 88.6985 86.9876 88.6296 86.1155Z" fill="white"/>
<path d="M53.5185 86.6142C54.2009 86.1482 55.0619 86.017 55.8742 86.0664C56.3626 86.1035 56.8901 86.2091 57.2532 86.5638C57.6211 86.949 57.7024 87.5101 57.7196 88.0208C57.731 89.3142 57.5801 90.639 57.9298 91.9048C57.5495 92.0019 57.1252 92.1017 56.7525 91.9267C56.5671 91.844 56.4782 91.6566 56.3893 91.4892C55.8761 91.9144 55.2014 92.154 54.5306 92.0808C53.9648 92.0323 53.4153 91.6699 53.2223 91.1269C53.0665 90.6809 53.055 90.1835 53.1831 89.7298C53.3178 89.2524 53.789 88.9671 54.242 88.8378C54.9424 88.6447 55.6754 88.6333 56.3979 88.6105C56.3845 88.153 56.3989 87.6642 56.1714 87.2524C55.9229 86.89 55.3906 86.8957 55.0237 87.0546C54.6233 87.2134 54.3585 87.5738 54.1961 87.9561C53.8587 87.9076 53.444 87.9143 53.2165 87.6166C52.9872 87.2714 53.1993 86.8196 53.5185 86.6142ZM54.5449 89.9153C54.2993 90.348 54.4885 91.0261 54.9979 91.1735C55.4862 91.3171 56.0128 91.1174 56.3645 90.7703C56.3329 90.3042 56.3415 89.8363 56.3645 89.3703C55.749 89.4797 55.0179 89.4398 54.5449 89.9153Z" fill="white"/>
<path d="M59.1086 86.1965C59.5062 86.1518 59.9401 86.0672 60.3166 86.2488C60.5632 86.3772 60.5698 86.6787 60.5899 86.9184C60.9196 86.5085 61.3477 86.0986 61.902 86.0567C62.1772 86.0425 62.5566 86.0976 62.6455 86.4067C62.742 86.8071 62.4525 87.1523 62.2441 87.4624C61.6803 86.9944 60.8164 87.3615 60.5316 87.9588C60.4905 89.2636 60.3768 90.6217 60.8183 91.8771C60.4255 92.0207 59.9783 92.092 59.5788 91.9351C59.2711 91.8133 59.2109 91.4386 59.1985 91.1495C59.2033 89.4985 59.2749 87.8418 59.1086 86.1965Z" fill="white"/>
<path d="M63.4841 86.2586C63.8558 86.1369 64.2782 86.077 64.649 86.2329C64.8478 86.3119 64.8803 86.542 64.9395 86.7199C65.6343 86.1787 66.5699 85.9314 67.4367 86.1197C67.8313 86.2025 68.1563 86.4754 68.3608 86.8159C69.0144 86.2396 69.9195 85.9571 70.7853 86.0884C71.2574 86.1654 71.7199 86.4517 71.9158 86.8996C72.1585 87.4284 72.0945 88.0237 72.0869 88.5877C72.0745 89.6861 71.9598 90.8274 72.3822 91.8716C71.9731 92.0285 71.4915 92.1027 71.0844 91.903C70.8139 91.7622 70.7757 91.4246 70.7585 91.1545C70.7461 90.1417 70.8159 89.1279 70.8006 88.115C70.7967 87.6566 70.6008 87.1174 70.1154 86.9776C69.5143 86.8311 68.9447 87.1916 68.5079 87.5663C68.5309 89.0309 68.5041 90.4974 68.5854 91.961C68.1907 91.9829 67.7606 92.0666 67.3927 91.8802C67.2302 91.8012 67.1691 91.6139 67.1853 91.4456C67.2159 90.3043 67.3124 89.1621 67.2694 88.0199C67.2551 87.5587 66.9885 87.0413 66.4944 86.9576C65.9181 86.8701 65.3925 87.2011 64.9825 87.5672C65.015 89.029 64.9586 90.4955 65.08 91.9544C64.6748 91.9848 64.2295 92.0723 63.853 91.8745C63.6618 91.7737 63.6484 91.5407 63.658 91.3524C63.7 89.942 63.7784 88.5259 63.6465 87.1174C63.6188 86.8264 63.5634 86.5392 63.4841 86.2586Z" fill="white"/>
<path d="M73.8217 86.6622C74.4496 86.1896 75.2686 86.045 76.0407 86.0574C76.5883 86.0783 77.1923 86.161 77.6042 86.5567C77.9864 86.9352 78.0619 87.5048 78.0849 88.0165C78.0925 89.3118 77.9454 90.6366 78.2923 91.9043C77.9071 92.0042 77.4742 92.105 77.0986 91.9186C76.9161 91.8378 76.8349 91.6485 76.7594 91.4792C76.2051 91.9538 75.4425 92.1935 74.7191 92.0546C74.1696 91.9519 73.6755 91.5382 73.5398 90.9894C73.4385 90.5786 73.428 90.1364 73.5465 89.7274C73.6822 89.2557 74.1447 88.9713 74.5929 88.842C75.2934 88.6461 76.0283 88.6328 76.7517 88.6109C76.7517 88.1544 76.7632 87.6646 76.5348 87.2528C76.3016 86.9028 75.7989 86.9009 75.4406 87.0322C75.0153 87.1815 74.7296 87.5562 74.5595 87.9556C74.2202 87.9081 73.7997 87.9138 73.5751 87.6095C73.3706 87.2928 73.5369 86.8695 73.8217 86.6622ZM75.172 89.7112C74.5814 89.969 74.741 90.9276 75.2867 91.1464C75.7875 91.3375 76.3637 91.1378 76.7259 90.7669C76.6982 90.3018 76.7097 89.8358 76.7278 89.3708C76.207 89.4602 75.6451 89.4507 75.172 89.7112Z" fill="white"/>
<path d="M79.8352 87.232C80.6695 86.0793 82.4088 85.6922 83.633 86.4492C83.9808 86.6433 84.2265 87.0712 84.0965 87.4669C83.9235 87.795 83.5107 87.8501 83.181 87.9129C83.0347 87.2129 82.1785 86.7469 81.5305 87.1007C80.8874 87.4716 80.6647 88.2705 80.6647 88.9666C80.6676 89.6134 80.7479 90.3504 81.2563 90.8136C81.8918 91.427 83.0797 91.309 83.5422 90.5425C83.7763 90.7032 84.0774 90.8659 84.128 91.174C84.1787 91.4974 83.9006 91.7475 83.6225 91.8492C82.598 92.2515 81.3643 92.1688 80.4535 91.5297C79.7559 91.0808 79.3746 90.261 79.3249 89.4526C79.2742 88.688 79.3765 87.8691 79.8352 87.232Z" fill="white"/>
</svg>
