<svg width="132" height="38" viewBox="0 0 132 38" fill="none" xmlns="http://www.w3.org/2000/svg">
<g clip-path="url(#clip0_331_17771)">
<path d="M7.313 38.1385C7.0122 38.1385 6.71887 38.1345 6.42047 38.1281C5.86847 38.1124 5.21407 38.0817 4.57541 37.9668C3.97274 37.858 3.43754 37.6806 2.93994 37.4262C2.42527 37.1649 1.96234 36.8276 1.561 36.4225C1.1522 36.0214 0.816198 35.5609 0.553532 35.0441C0.297798 34.5457 0.122596 34.0108 0.0175293 33.4081C-0.102737 32.7441 -0.133662 32.0702 -0.146729 31.5574C-0.152862 31.3492 -0.161133 30.6561 -0.161133 30.6561V7.33797C-0.161133 7.33797 -0.152595 6.65557 -0.146729 6.45503C-0.133662 5.9377 -0.102735 5.26437 0.0167317 4.60703C0.122065 4.00117 0.297271 3.4665 0.553271 2.96623C0.815405 2.44863 1.15168 1.98543 1.55514 1.58623C1.96341 1.1777 2.42794 0.8393 2.9394 0.5769C3.4466 0.319567 3.981 0.143833 4.5714 0.0401001C5.2362 -0.0790999 5.91007 -0.1087 6.42287 -0.121767L7.31354 -0.134033H123.969L124.87 -0.121233C125.377 -0.1087 126.049 -0.0790999 126.705 0.0390334C127.3 0.1433 127.838 0.3201 128.353 0.5801C128.86 0.8393 129.324 1.1777 129.729 1.5825C130.132 1.98357 130.47 2.44917 130.737 2.96863C130.993 3.47343 131.166 4.00783 131.265 4.59637C131.382 5.21903 131.417 5.85877 131.438 6.4593C131.441 6.73877 131.441 7.03903 131.441 7.33797C131.449 7.7081 131.449 8.06037 131.449 8.41557V29.5897C131.449 29.9486 131.449 30.2982 131.441 30.6513C131.441 30.9724 131.441 31.2662 131.436 31.5689C131.417 32.1502 131.382 32.7894 131.268 33.3985C131.166 34.0041 130.993 34.539 130.734 35.047C130.47 35.5598 130.132 36.0236 129.732 36.415C129.324 36.8276 128.862 37.1638 128.35 37.4241C127.838 37.6846 127.316 37.8569 126.705 37.9668C126.073 38.0817 125.417 38.1124 124.86 38.1281C124.572 38.1345 124.268 38.1385 123.974 38.1385L122.905 38.1406L7.313 38.1385Z" fill="#030404"/>
<path d="M44.3962 24.4149H47.8919L46.6404 21.0648C46.4682 20.6021 46.2988 20.0909 46.1319 19.5309C45.9812 20.0261 45.817 20.532 45.6394 21.0485L44.3962 24.4149ZM48.4893 26.0053H43.8069L42.6607 29.1376H40.6021L45.1874 17.44H47.133L51.8234 29.1376H49.6599L48.4893 26.0053Z" fill="white"/>
<path d="M57.8688 27.0014C58.2752 26.4553 58.4784 25.6574 58.4784 24.6078C58.4784 23.634 58.3101 22.9273 57.9738 22.4886C57.6373 22.05 57.1893 21.8308 56.6296 21.8308C56.2421 21.8308 55.8842 21.9225 55.556 22.1052C55.2277 22.2884 54.9154 22.5332 54.6194 22.8398V27.5059C54.8186 27.6027 55.0501 27.6795 55.3139 27.7358C55.5776 27.7926 55.8386 27.8209 56.0968 27.8209C56.872 27.8209 57.4624 27.5476 57.8688 27.0014ZM52.6256 22.5494C52.6256 21.9036 52.604 21.1932 52.561 20.418H54.4338C54.5037 20.7788 54.5522 21.1476 54.5792 21.5241C55.3541 20.6793 56.2421 20.2566 57.2432 20.2566C57.8245 20.2566 58.3626 20.4033 58.8578 20.6964C59.3528 20.99 59.7525 21.4526 60.0565 22.0849C60.3608 22.7174 60.5128 23.5209 60.5128 24.4948C60.5128 25.5121 60.3392 26.3812 59.992 27.1022C59.6448 27.8235 59.1592 28.3697 58.5349 28.7411C57.9106 29.1123 57.1893 29.2982 56.3714 29.2982C55.7792 29.2982 55.1952 29.1985 54.6194 28.9995V32.5998L52.6256 32.7694V22.5494Z" fill="white"/>
<path d="M66.9843 27.0014C67.3907 26.4553 67.5939 25.6574 67.5939 24.6078C67.5939 23.634 67.4256 22.9273 67.0893 22.4886C66.7528 22.05 66.3048 21.8308 65.7451 21.8308C65.3576 21.8308 64.9997 21.9225 64.6715 22.1052C64.3429 22.2884 64.0309 22.5332 63.7349 22.8398V27.5059C63.9341 27.6027 64.1653 27.6795 64.4293 27.7358C64.6928 27.7926 64.9539 27.8209 65.2123 27.8209C65.9872 27.8209 66.5779 27.5476 66.9843 27.0014ZM61.7408 22.5494C61.7408 21.9036 61.7192 21.1932 61.6763 20.418H63.5493C63.6192 20.7788 63.6677 21.1476 63.6947 21.5241C64.4696 20.6793 65.3576 20.2566 66.3587 20.2566C66.94 20.2566 67.4779 20.4033 67.9733 20.6964C68.4683 20.99 68.868 21.4526 69.1723 22.0849C69.476 22.7174 69.6283 23.5209 69.6283 24.4948C69.6283 25.5121 69.4544 26.3812 69.1075 27.1022C68.7603 27.8235 68.2744 28.3697 67.6504 28.7411C67.0259 29.1123 66.3048 29.2982 65.4867 29.2982C64.8947 29.2982 64.3107 29.1985 63.7349 28.9995V32.5998L61.7408 32.7694V22.5494Z" fill="white"/>
<path d="M73.2896 28.5829C72.4283 28.1069 71.7664 27.4245 71.3038 26.5365C70.8406 25.6485 70.6094 24.5992 70.6094 23.3882C70.6094 22.0752 70.8758 20.9594 71.4086 20.0418C71.9414 19.1242 72.6667 18.4354 73.584 17.9752C74.5019 17.5152 75.531 17.285 76.6723 17.285C77.3448 17.285 77.9867 17.3592 78.5976 17.5069C79.2083 17.6552 79.7774 17.8581 80.3051 18.1165L79.7963 19.6504C78.736 19.1445 77.7243 18.8914 76.7611 18.8914C75.9483 18.8914 75.2366 19.065 74.6259 19.4122C74.015 19.7594 73.5398 20.2693 73.2008 20.9421C72.8616 21.6149 72.6923 22.4274 72.6923 23.38C72.6923 24.2144 72.8227 24.9544 73.0835 25.6002C73.3448 26.2458 73.7566 26.7573 74.319 27.1338C74.8814 27.5106 75.5904 27.6989 76.4462 27.6989C76.8336 27.6989 77.2211 27.6666 77.6086 27.6021C77.996 27.5376 78.3595 27.4434 78.6984 27.3194V24.9544H75.9942V23.4042H80.6361V28.3288C79.9686 28.6408 79.2675 28.8805 78.5331 29.0472C77.7982 29.2138 77.0678 29.2973 76.3411 29.2973C75.1678 29.2973 74.1504 29.0594 73.2896 28.5829Z" fill="white"/>
<path d="M86.5064 27.5139C86.9206 27.315 87.2597 27.0673 87.5235 26.7713V25.1569C86.9797 25.0977 86.5357 25.0681 86.1915 25.0681C85.368 25.0681 84.7987 25.2011 84.4843 25.4678C84.1691 25.7337 84.0118 26.0931 84.0118 26.5451C84.0118 26.9761 84.1262 27.2947 84.355 27.5019C84.5838 27.7091 84.8944 27.8126 85.2872 27.8126C85.6853 27.8126 86.0918 27.7131 86.5064 27.5139ZM87.7011 29.1286C87.6309 28.7894 87.5851 28.4049 87.5637 27.9742C87.2571 28.3403 86.8576 28.651 86.3648 28.9067C85.8728 29.1622 85.3168 29.2899 84.6979 29.2899C84.1974 29.2899 83.7413 29.1918 83.3293 28.9952C82.9181 28.799 82.5909 28.503 82.3488 28.1073C82.1067 27.7118 81.9854 27.2289 81.9854 26.6582C81.9854 25.8134 82.2893 25.1393 82.8976 24.6361C83.5059 24.1329 84.5203 23.8814 85.9411 23.8814C86.4739 23.8814 87.0013 23.919 87.5235 23.9942V23.8249C87.5235 23.0553 87.3592 22.5131 87.0309 22.1979C86.7027 21.8833 86.2317 21.7259 85.6184 21.7259C85.1931 21.7259 84.7384 21.7878 84.2539 21.9115C83.7696 22.0355 83.3443 22.1833 82.9784 22.3555L82.6635 20.9025C83.0187 20.7409 83.4869 20.5931 84.0683 20.4585C84.6496 20.3241 85.2629 20.2566 85.9088 20.2566C86.6624 20.2566 87.3027 20.371 87.8302 20.5995C88.3576 20.8283 88.7694 21.2214 89.0654 21.7782C89.3614 22.3355 89.5094 23.0849 89.5094 24.0267V27.4897C89.5094 27.8505 89.5307 28.3969 89.5739 29.1286H87.7011Z" fill="white"/>
<path d="M91.064 27.0467V16.7539L93.0498 16.5923V26.6915C93.0498 27.063 93.113 27.3251 93.2394 27.4787C93.3658 27.6318 93.5664 27.7088 93.841 27.7088C93.9648 27.7088 94.1397 27.6792 94.3656 27.62L94.5997 29.0488C94.4112 29.1243 94.1813 29.1848 93.9098 29.2304C93.6378 29.276 93.3808 29.299 93.1386 29.299C91.7552 29.299 91.064 28.5483 91.064 27.0467Z" fill="white"/>
<path d="M96.0225 27.0467V16.7539L98.0083 16.5923V26.6915C98.0083 27.063 98.0715 27.3251 98.1979 27.4787C98.3246 27.6318 98.5251 27.7088 98.7995 27.7088C98.9233 27.7088 99.0982 27.6792 99.3243 27.62L99.5585 29.0488C99.3699 29.1243 99.1398 29.1848 98.8683 29.2304C98.5963 29.276 98.3393 29.299 98.0971 29.299C96.7139 29.299 96.0225 28.5483 96.0225 27.0467Z" fill="white"/>
<path d="M105.762 23.7603C105.722 23.0659 105.549 22.5454 105.237 22.1979C104.925 21.851 104.506 21.6774 103.986 21.6774C103.479 21.6774 103.058 21.8523 102.722 22.2022C102.386 22.5521 102.165 23.0715 102.063 23.7603H105.762ZM107.706 25.0275H102.007C102.098 26.8521 102.967 27.7643 104.615 27.7643C105.023 27.7643 105.442 27.7145 105.871 27.615C106.298 27.5153 106.709 27.3822 107.101 27.2153L107.538 28.5795C106.562 29.0534 105.469 29.2899 104.253 29.2899C103.325 29.2899 102.546 29.1153 101.911 28.7654C101.274 28.4155 100.797 27.9123 100.477 27.2555C100.157 26.5993 99.9971 25.8081 99.9971 24.8825C99.9971 23.919 100.167 23.0902 100.506 22.3958C100.845 21.7017 101.317 21.1715 101.922 20.8054C102.527 20.4395 103.226 20.2566 104.018 20.2566C104.842 20.2566 105.527 20.4491 106.079 20.8339C106.631 21.2185 107.039 21.7313 107.306 22.3715C107.573 23.0123 107.706 23.7198 107.706 24.4947V25.0275Z" fill="white"/>
<path d="M109.215 22.6057C109.215 22.127 109.191 21.3977 109.148 20.418H111.015C111.047 20.6604 111.076 20.9494 111.108 21.286C111.138 21.6222 111.156 21.8953 111.167 22.1052C111.399 21.7233 111.626 21.4017 111.85 21.1406C112.074 20.8796 112.335 20.667 112.634 20.5028C112.932 20.3385 113.271 20.2566 113.655 20.2566C113.962 20.2566 114.223 20.2889 114.444 20.3534L114.194 22.0812C114.002 22.022 113.786 21.9924 113.548 21.9924C113.082 21.9924 112.671 22.1121 112.322 22.3516C111.972 22.591 111.599 22.9852 111.199 23.5342V29.1286H109.215V22.6057Z" fill="white"/>
<path d="M115.59 32.6954C115.3 32.6444 115.06 32.5866 114.873 32.522L115.236 31.069C115.369 31.1063 115.54 31.1428 115.745 31.1778C115.948 31.213 116.142 31.2303 116.326 31.2303C117.209 31.2303 117.87 30.6623 118.31 29.5268L118.441 29.2039L115.228 20.4207H117.366L118.982 25.3292C119.244 26.1687 119.414 26.8119 119.489 27.2583C119.641 26.6287 119.817 25.9991 120.022 25.3695L121.662 20.4207H123.67L120.468 29.2444C120.166 30.0786 119.838 30.7511 119.489 31.2626C119.14 31.7738 118.726 32.1532 118.252 32.401C117.774 32.6482 117.201 32.7722 116.526 32.7722C116.193 32.7722 115.881 32.7468 115.59 32.6954Z" fill="white"/>
<path d="M40.5654 6.30127H44.1196L44.0196 7.15967H41.607V8.82207H43.882V9.62634H41.607V11.4679H44.1486L44.0612 12.3346H40.5654V6.30127Z" fill="white"/>
<path d="M46.5686 9.2554L44.6937 6.30127H45.8769L47.1478 8.4722L48.4854 6.30127H49.6353L47.7769 9.21807L49.7894 12.3346H48.5894L47.1521 9.95967L45.6894 12.3346H44.5396L46.5686 9.2554Z" fill="white"/>
<path d="M53.1682 8.99514C53.3903 8.7938 53.5015 8.5098 53.5015 8.14314C53.5015 7.77087 53.3882 7.50287 53.1621 7.33887C52.9357 7.17514 52.6029 7.093 52.1642 7.093H51.5975V9.2346C51.8586 9.27647 52.0586 9.29727 52.1975 9.29727C52.6223 9.29727 52.9461 9.19674 53.1682 8.99514ZM50.5557 6.30127H52.1807C52.9445 6.30127 53.5293 6.457 53.9349 6.76794C54.3405 7.07914 54.5431 7.52927 54.5431 8.11807C54.5431 8.51807 54.4522 8.8674 54.2703 9.16607C54.0882 9.46474 53.8349 9.6938 53.5098 9.85354C53.185 10.0133 52.8111 10.093 52.389 10.093C52.1586 10.093 51.8946 10.0655 51.5975 10.0098V12.3346H50.5557V6.30127Z" fill="white"/>
<path d="M55.5874 6.30127H56.629V11.4431H59.1247L59.0373 12.3346H55.5874V6.30127Z" fill="white"/>
<path d="M63.4052 11.3006C63.6969 11.1046 63.9148 10.8352 64.0593 10.492C64.2038 10.1491 64.2761 9.75657 64.2761 9.31497C64.2761 8.88164 64.2121 8.49577 64.0844 8.15657C63.9564 7.81791 63.7524 7.54777 63.4718 7.34617C63.1913 7.14511 62.8302 7.04431 62.3884 7.04431C61.9662 7.04431 61.6078 7.14617 61.3134 7.35044C61.019 7.55471 60.7982 7.82831 60.651 8.17124C60.5038 8.51444 60.4302 8.89284 60.4302 9.30671C60.4302 9.74297 60.4996 10.1334 60.6385 10.4776C60.7772 10.8222 60.9897 11.0942 61.2761 11.2942C61.562 11.4942 61.9161 11.5942 62.3385 11.5942C62.758 11.5942 63.1134 11.4963 63.4052 11.3006ZM60.7052 12.04C60.2636 11.7875 59.926 11.4326 59.6926 10.9755C59.4593 10.5187 59.3428 9.98751 59.3428 9.38164C59.3428 8.74564 59.4668 8.18964 59.7156 7.71284C59.9641 7.23657 60.3225 6.86857 60.7905 6.60884C61.2585 6.34911 61.8105 6.21924 62.4468 6.21924C63.055 6.21924 63.5788 6.34511 64.0177 6.59631C64.4564 6.84777 64.7913 7.20111 65.0217 7.65657C65.2524 8.11231 65.3676 8.64004 65.3676 9.24004C65.3676 9.88751 65.242 10.4499 64.9905 10.9275C64.739 11.4054 64.3809 11.7734 63.9156 12.0318C63.4502 12.2899 62.9038 12.4192 62.2761 12.4192C61.6705 12.4192 61.1468 12.2928 60.7052 12.04Z" fill="white"/>
<path d="M68.1587 9.1554C68.4113 9.1554 68.635 9.10634 68.8294 9.00767C69.0238 8.90927 69.1753 8.77007 69.2835 8.59087C69.3921 8.41167 69.4462 8.2042 69.4462 7.96794C69.4462 7.66554 69.3502 7.44394 69.1587 7.3034C68.967 7.1634 68.6878 7.093 68.3211 7.093H67.567V9.1554H68.1587ZM66.5254 6.30127H68.4129C69.1017 6.30127 69.6233 6.43887 69.9774 6.7138C70.3315 6.98874 70.5086 7.38207 70.5086 7.893C70.5086 8.21247 70.4446 8.4938 70.3169 8.73674C70.1891 8.97994 70.0307 9.1778 69.8419 9.3306C69.6529 9.4834 69.4587 9.59727 69.2587 9.6722L71.1129 12.3346H69.9046L68.3337 9.94314H67.567V12.3346H66.5254V6.30127Z" fill="white"/>
<path d="M71.958 6.30127H75.5122L75.4122 7.15967H72.9996V8.82207H75.2746V9.62634H72.9996V11.4679H75.5412L75.4538 12.3346H71.958V6.30127Z" fill="white"/>
<path d="M80.4015 6.30127H79.3599V12.3346H80.4015V6.30127Z" fill="white"/>
<path d="M83.1629 7.1722H81.292L81.3837 6.30127H86.0797L85.9837 7.1722H84.2045V12.3346H83.1629V7.1722Z" fill="white"/>
<path d="M93.3034 11.3006C93.5948 11.1046 93.813 10.8352 93.9575 10.492C94.1018 10.1491 94.174 9.75657 94.174 9.31497C94.174 8.88164 94.11 8.49577 93.9826 8.15657C93.8546 7.81791 93.6503 7.54777 93.37 7.34617C93.0892 7.14511 92.7282 7.04431 92.2866 7.04431C91.8642 7.04431 91.506 7.14617 91.2117 7.35044C90.917 7.55471 90.6962 7.82831 90.5492 8.17124C90.4018 8.51444 90.3282 8.89284 90.3282 9.30671C90.3282 9.74297 90.3975 10.1334 90.5367 10.4776C90.6754 10.8222 90.8879 11.0942 91.1741 11.2942C91.4602 11.4942 91.8143 11.5942 92.2367 11.5942C92.6559 11.5942 93.0116 11.4963 93.3034 11.3006ZM90.6034 12.04C90.1615 11.7875 89.8242 11.4326 89.5909 10.9755C89.3575 10.5187 89.2407 9.98751 89.2407 9.38164C89.2407 8.74564 89.365 8.18964 89.6138 7.71284C89.8621 7.23657 90.2205 6.86857 90.6887 6.60884C91.1567 6.34911 91.7087 6.21924 92.345 6.21924C92.9532 6.21924 93.4767 6.34511 93.9159 6.59631C94.3546 6.84777 94.6892 7.20111 94.9199 7.65657C95.1503 8.11231 95.2658 8.64004 95.2658 9.24004C95.2658 9.88751 95.1399 10.4499 94.8887 10.9275C94.6372 11.4054 94.2788 11.7734 93.8138 12.0318C93.3484 12.2899 92.8018 12.4192 92.1741 12.4192C91.5685 12.4192 91.045 12.2928 90.6034 12.04Z" fill="white"/>
<path d="M96.4238 6.30127H97.6198L100.604 10.9765C100.577 10.5322 100.566 10.1221 100.566 9.74713V6.30127H101.532V12.3346H100.374L97.3449 7.58474C97.3753 8.12367 97.3905 8.60127 97.3905 9.01807V12.3346H96.4238V6.30127Z" fill="white"/>
<path fill-rule="evenodd" clip-rule="evenodd" d="M25.9197 6.32861H14.8413C9.62266 6.32861 7.71387 8.23768 7.71387 13.4561V24.5347C7.71387 29.7531 9.62266 31.6619 14.8413 31.6619H25.9163C31.1349 31.6619 33.0472 29.7531 33.0472 24.5347V13.4561C33.0472 8.23768 31.1384 6.32861 25.9197 6.32861Z" fill="#C9202F"/>
<path d="M18.7827 21.0222H19.7987L19.2891 19.8372L18.7827 21.0222ZM18.5325 21.6196L18.2312 22.3092H17.5451L19.0043 18.999H19.5971L21.0504 22.3092H20.3459L20.0483 21.6196H18.5325ZM29.5734 22.307H30.2366V18.999H29.5734V22.307ZM26.9341 20.8854H28.1563V20.2828H26.9341V19.6046H28.7083V19.0012H26.2712V22.3089H28.7723V21.7057H26.9341V20.8854ZM24.2992 21.2764L23.5472 18.9988H22.999L22.247 21.2764L21.5152 19.0004H20.8L21.9544 22.3108H22.5107L23.2638 20.1364L24.0165 22.3108H24.5779L25.7293 19.0004H25.0325L24.2992 21.2764ZM16.5328 20.8948C16.5328 21.4332 16.2654 21.7209 15.7798 21.7209C15.2915 21.7209 15.0227 21.4252 15.0227 20.8718V19.0009H14.3507V20.8948C14.3507 21.8265 14.8683 22.3606 15.7707 22.3606C16.6819 22.3606 17.2046 21.8164 17.2046 20.8673V18.9988H16.5328V20.8948ZM12.7472 18.999H13.4189V22.311H12.7472V20.966H11.2296V22.311H10.5576V18.999H11.2296V20.335H12.7472V18.999Z" fill="white"/>
<path d="M20.3896 14.7843C18.0646 14.7843 16.1729 12.8925 16.1729 10.5672H16.7686C16.7686 12.564 18.3928 14.1883 20.3896 14.1883C22.3864 14.1883 24.0107 12.564 24.0107 10.5672H24.6064C24.6064 12.8925 22.7147 14.7843 20.3896 14.7843Z" fill="white"/>
</g>
<defs>
<clipPath id="clip0_331_17771">
<rect width="132" height="38" fill="white"/>
</clipPath>
</defs>
</svg>
