<svg width="114" height="38" viewBox="0 0 114 38" fill="none" xmlns="http://www.w3.org/2000/svg">
<path d="M8.14842 37.998C7.85877 37.998 7.57612 37.9942 7.28875 37.9874C6.69343 37.9793 6.0995 37.9252 5.51183 37.8254C4.96386 37.7268 4.43303 37.5433 3.93684 37.2811C3.44519 37.021 2.99678 36.6801 2.60876 36.2712C2.21513 35.8671 1.88742 35.3985 1.63861 34.8839C1.38705 34.3659 1.21296 33.8107 1.1224 33.2376C1.0246 32.6218 0.971684 31.9991 0.964113 31.375C0.958086 31.1655 0.950195 30.4679 0.950195 30.4679V7.5195C0.950195 7.5195 0.958599 6.83265 0.964161 6.63086C0.97141 6.00767 1.02402 5.38597 1.12152 4.77112C1.21225 4.19645 1.38648 3.63964 1.63817 3.11997C1.88607 2.60569 2.21196 2.13672 2.60322 1.73123C2.99404 1.32189 3.44389 0.979142 3.93637 0.715496C4.43142 0.454113 4.96125 0.27196 5.50812 0.175139C6.09771 0.0743737 6.6937 0.0198949 7.29109 0.0121601L8.14889 3.05176e-05H105.847L106.715 0.0126469C107.307 0.0199973 107.897 0.0739901 108.482 0.174166C109.034 0.272201 109.569 0.455625 110.07 0.718407C111.057 1.24973 111.859 2.09033 112.366 3.12239C112.614 3.63848 112.785 4.19075 112.875 4.76045C112.973 5.38034 113.029 6.00693 113.04 6.63523C113.043 6.91656 113.043 7.21876 113.043 7.5195C113.05 7.89203 113.05 8.24661 113.05 8.6041V29.3949C113.05 29.7558 113.05 30.108 113.043 30.463C113.043 30.7861 113.043 31.082 113.039 31.3866C113.028 32.0037 112.974 32.6191 112.876 33.2279C112.788 33.8051 112.615 34.3647 112.363 34.8869C112.113 35.3959 111.787 35.8605 111.398 36.2634C111.009 36.6745 110.56 37.0175 110.067 37.2792C109.568 37.5435 109.033 37.7276 108.482 37.8254C107.894 37.9257 107.3 37.9798 106.705 37.9874C106.426 37.9942 106.135 37.998 105.852 37.998L104.821 38L8.14842 37.998Z" fill="black"/>
<path d="M23.5964 19.2858C23.6067 18.4929 23.8179 17.7154 24.2104 17.0258C24.6029 16.3361 25.164 15.7567 25.8414 15.3413C25.4111 14.7284 24.8433 14.224 24.1833 13.8682C23.5233 13.5124 22.7891 13.3149 22.0392 13.2915C20.4394 13.1241 18.8885 14.2461 18.0733 14.2461C17.2424 14.2461 15.9872 13.3082 14.6356 13.3359C13.7614 13.3641 12.9094 13.6176 12.1626 14.0717C11.4158 14.5259 10.7998 15.1652 10.3744 15.9274C8.53198 19.1084 9.90628 23.7834 11.6712 26.3546C12.5542 27.6137 13.5862 29.0202 14.9366 28.9703C16.258 28.9156 16.7515 28.13 18.3466 28.13C19.9268 28.13 20.3898 28.9703 21.7676 28.9386C23.1855 28.9156 24.0789 27.6739 24.9309 26.4029C25.5654 25.5057 26.0536 24.5142 26.3775 23.465C25.5537 23.1176 24.8507 22.536 24.3562 21.7928C23.8616 21.0496 23.5974 20.1777 23.5964 19.2858V19.2858Z" fill="white"/>
<path d="M20.9943 11.6005C21.7674 10.675 22.1483 9.48541 22.056 8.28439C20.8749 8.4081 19.7838 8.97103 19.0003 9.86102C18.6172 10.2958 18.3237 10.8016 18.1368 11.3496C17.9498 11.8975 17.873 12.4768 17.9107 13.0543C18.5015 13.0604 19.0859 12.9327 19.6201 12.6809C20.1542 12.4291 20.6241 12.0596 20.9943 11.6005Z" fill="white"/>
<path d="M40.3001 25.7828H35.7908L34.7078 28.9714H32.7979L37.069 17.1743H39.0534L43.3246 28.9714H41.3821L40.3001 25.7828ZM36.2578 24.3114H39.8322L38.0701 19.1365H38.0208L36.2578 24.3114Z" fill="white"/>
<path d="M52.549 24.6713C52.549 27.3441 51.1144 29.0614 48.9495 29.0614C48.4011 29.09 47.8557 28.964 47.3758 28.6979C46.8958 28.4317 46.5007 28.0362 46.2357 27.5566H46.1948V31.8167H44.4243V20.3704H46.138V21.8009H46.1706C46.4478 21.3236 46.8495 20.9301 47.3331 20.6623C47.8167 20.3946 48.3641 20.2626 48.917 20.2804C51.106 20.2804 52.549 22.006 52.549 24.6713ZM50.7292 24.6713C50.7292 22.93 49.8268 21.7852 48.4499 21.7852C47.0972 21.7852 46.1873 22.9541 46.1873 24.6713C46.1873 26.4043 47.0972 27.5649 48.4499 27.5649C49.8268 27.5649 50.7292 26.4285 50.7292 24.6713Z" fill="white"/>
<path d="M62.0421 24.6714C62.0421 27.3442 60.6076 29.0614 58.4427 29.0614C57.8943 29.09 57.3489 28.964 56.8689 28.6979C56.389 28.4318 55.9939 28.0362 55.7289 27.5566H55.6879V31.8168H53.9175V20.3704H55.6312V21.8009H55.6637C55.9409 21.3236 56.3427 20.9301 56.8263 20.6624C57.3099 20.3946 57.8572 20.2626 58.4101 20.2804C60.5992 20.2804 62.0421 22.006 62.0421 24.6714ZM60.2224 24.6714C60.2224 22.93 59.32 21.7852 57.9431 21.7852C56.5904 21.7852 55.6805 22.9541 55.6805 24.6714C55.6805 26.4044 56.5904 27.565 57.9431 27.565C59.32 27.565 60.2224 26.4285 60.2224 24.6714H60.2224Z" fill="white"/>
<path d="M68.3162 25.6844C68.4474 26.8543 69.5871 27.6224 71.1445 27.6224C72.6367 27.6224 73.7103 26.8543 73.7103 25.7994C73.7103 24.8838 73.0628 24.3355 71.5296 23.9597L69.9964 23.5914C67.8241 23.0682 66.8156 22.0551 66.8156 20.4111C66.8156 18.3757 68.5944 16.9776 71.1203 16.9776C73.6201 16.9776 75.3338 18.3757 75.3915 20.4111H73.6043C73.4973 19.2339 72.5213 18.5232 71.0951 18.5232C69.6689 18.5232 68.693 19.2422 68.693 20.2887C68.693 21.1227 69.3163 21.6135 70.8412 21.9892L72.1446 22.3083C74.5718 22.8807 75.5803 23.853 75.5803 25.5786C75.5803 27.7857 73.8173 29.168 71.0133 29.168C68.3897 29.168 66.6183 27.8181 66.5039 25.6844L68.3162 25.6844Z" fill="white"/>
<path d="M79.4011 18.3349V20.3704H81.0413V21.7685H79.4011V26.5101C79.4011 27.2467 79.7295 27.59 80.4505 27.59C80.6452 27.5866 80.8396 27.573 81.0329 27.5492V28.9389C80.7087 28.9993 80.3792 29.0267 80.0495 29.0205C78.3033 29.0205 77.6223 28.3665 77.6223 26.6984V21.7685H76.3682V20.3704H77.6222V18.3349H79.4011Z" fill="white"/>
<path d="M81.9912 24.6714C81.9912 21.9652 83.5895 20.2646 86.0819 20.2646C88.5827 20.2646 90.1735 21.9651 90.1735 24.6714C90.1735 27.385 88.591 29.0781 86.0819 29.0781C83.5737 29.0781 81.9912 27.385 81.9912 24.6714ZM88.3696 24.6714C88.3696 22.815 87.5165 21.7193 86.0819 21.7193C84.6473 21.7193 83.7951 22.8233 83.7951 24.6714C83.7951 26.5352 84.6473 27.6225 86.0819 27.6225C87.5165 27.6225 88.3696 26.5352 88.3696 24.6714H88.3696Z" fill="white"/>
<path d="M91.6333 20.3704H93.3219V21.8343H93.3628C93.4771 21.3771 93.7457 20.973 94.1235 20.69C94.5013 20.407 94.9653 20.2624 95.4375 20.2804C95.6415 20.2797 95.845 20.3018 96.0441 20.3462V21.9976C95.7865 21.9191 95.5178 21.8831 95.2486 21.8909C94.9914 21.8805 94.735 21.9257 94.497 22.0235C94.2589 22.1212 94.045 22.2692 93.8697 22.4572C93.6944 22.6452 93.562 22.8688 93.4816 23.1126C93.4012 23.3564 93.3746 23.6147 93.4037 23.8698V28.9714H91.6333L91.6333 20.3704Z" fill="white"/>
<path d="M104.207 26.4452C103.969 28.0066 102.444 29.0781 100.493 29.0781C97.9841 29.0781 96.4268 27.4017 96.4268 24.7122C96.4268 22.0143 97.9925 20.2646 100.419 20.2646C102.805 20.2646 104.306 21.8993 104.306 24.5071V25.112H98.2139V25.2187C98.1858 25.5353 98.2256 25.8541 98.3305 26.1542C98.4355 26.4542 98.6033 26.7286 98.8227 26.959C99.0422 27.1894 99.3083 27.3706 99.6034 27.4906C99.8984 27.6106 100.216 27.6666 100.534 27.6549C100.953 27.694 101.372 27.5974 101.731 27.3794C102.09 27.1615 102.369 26.8338 102.526 26.4452L104.207 26.4452ZM98.2223 23.8781H102.534C102.55 23.5935 102.507 23.3087 102.407 23.0416C102.308 22.7744 102.154 22.5307 101.955 22.3257C101.756 22.1207 101.517 21.9589 101.253 21.8504C100.989 21.7419 100.705 21.6891 100.419 21.6952C100.131 21.6935 99.8447 21.7487 99.578 21.8577C99.3112 21.9667 99.0687 22.1273 98.8645 22.3303C98.6602 22.5332 98.4984 22.7745 98.3881 23.0402C98.2779 23.3058 98.2216 23.5906 98.2223 23.8782V23.8781Z" fill="white"/>
<path d="M36.0357 8.29461C36.4068 8.26805 36.7793 8.32397 37.1262 8.45833C37.4731 8.59269 37.7857 8.80214 38.0416 9.07159C38.2975 9.34103 38.4902 9.66375 38.6058 10.0165C38.7215 10.3692 38.7572 10.7431 38.7104 11.1112C38.7104 12.9221 37.7289 13.9631 36.0357 13.9631H33.9824V8.29461H36.0357ZM34.8653 13.1615H35.9371C36.2023 13.1773 36.4677 13.1339 36.714 13.0345C36.9603 12.9351 37.1813 12.7822 37.3609 12.5869C37.5404 12.3917 37.6741 12.1589 37.7521 11.9056C37.83 11.6523 37.8504 11.3849 37.8117 11.1228C37.8476 10.8617 37.8252 10.5959 37.746 10.3445C37.6668 10.093 37.5328 9.86217 37.3537 9.66844C37.1745 9.4747 36.9546 9.32289 36.7097 9.22386C36.4648 9.12484 36.2009 9.08106 35.9371 9.09566H34.8653V13.1615Z" fill="white"/>
<path d="M39.7078 11.8223C39.6808 11.5412 39.7131 11.2575 39.8025 10.9896C39.8919 10.7216 40.0365 10.4752 40.2269 10.2662C40.4174 10.0572 40.6496 9.89027 40.9086 9.77601C41.1676 9.66175 41.4476 9.60272 41.7308 9.60272C42.014 9.60272 42.2941 9.66175 42.5531 9.77601C42.8121 9.89027 43.0442 10.0572 43.2347 10.2662C43.4252 10.4752 43.5698 10.7216 43.6592 10.9896C43.7486 11.2575 43.7808 11.5412 43.7539 11.8223C43.7813 12.1037 43.7495 12.3877 43.6603 12.6561C43.5711 12.9245 43.4267 13.1713 43.2361 13.3807C43.0456 13.5901 42.8133 13.7575 42.554 13.872C42.2948 13.9865 42.0144 14.0456 41.7308 14.0456C41.4473 14.0456 41.1669 13.9865 40.9077 13.872C40.6484 13.7575 40.4161 13.5901 40.2255 13.3807C40.035 13.1713 39.8905 12.9245 39.8014 12.6561C39.7122 12.3877 39.6803 12.1037 39.7078 11.8223ZM42.883 11.8223C42.883 10.895 42.4653 10.3528 41.7322 10.3528C40.9963 10.3528 40.5824 10.895 40.5824 11.8223C40.5824 12.757 40.9964 13.2951 41.7322 13.2951C42.4653 13.2951 42.8831 12.7533 42.8831 11.8223H42.883Z" fill="white"/>
<path d="M49.1323 13.963H48.254L47.3674 10.8124H47.3005L46.4176 13.963H45.5477L44.3652 9.68524H45.2239L45.9924 12.9494H46.0557L46.9376 9.68524H47.7498L48.6318 12.9494H48.6988L49.4635 9.68524H50.3101L49.1323 13.963Z" fill="white"/>
<path d="M51.3042 9.68524H52.1192V10.3648H52.1824C52.2898 10.1207 52.4708 9.91612 52.7002 9.7795C52.9297 9.64289 53.1962 9.58107 53.4626 9.60266C53.6713 9.58701 53.8809 9.6184 54.0758 9.69449C54.2707 9.77058 54.446 9.88943 54.5886 10.0422C54.7312 10.195 54.8375 10.3779 54.8996 10.5772C54.9617 10.7765 54.978 10.9872 54.9474 11.1937V13.963H54.1008V11.4057C54.1008 10.7183 53.8012 10.3764 53.1751 10.3764C53.0334 10.3698 52.8919 10.3939 52.7604 10.4469C52.6289 10.4999 52.5104 10.5807 52.4131 10.6837C52.3158 10.7866 52.242 10.9094 52.1967 11.0434C52.1515 11.1775 52.1358 11.3198 52.1508 11.4605V13.963H51.3042L51.3042 9.68524Z" fill="white"/>
<path d="M56.2964 8.01532H57.143V13.963H56.2964V8.01532Z" fill="white"/>
<path d="M58.3201 11.8223C58.2931 11.5412 58.3254 11.2575 58.4148 10.9895C58.5043 10.7216 58.6489 10.4752 58.8393 10.2662C59.0298 10.0572 59.262 9.89021 59.521 9.77595C59.78 9.66169 60.0601 9.60266 60.3434 9.60266C60.6266 9.60266 60.9067 9.66169 61.1657 9.77595C61.4247 9.89021 61.6569 10.0572 61.8473 10.2662C62.0378 10.4752 62.1824 10.7216 62.2719 10.9895C62.3613 11.2575 62.3936 11.5412 62.3666 11.8223C62.394 12.1037 62.3622 12.3878 62.273 12.6562C62.1838 12.9246 62.0393 13.1714 61.8487 13.3808C61.6582 13.5902 61.4258 13.7575 61.1666 13.872C60.9073 13.9865 60.6269 14.0456 60.3434 14.0456C60.0598 14.0456 59.7794 13.9865 59.5201 13.872C59.2609 13.7575 59.0285 13.5902 58.838 13.3808C58.6474 13.1714 58.5029 12.9246 58.4137 12.6562C58.3245 12.3878 58.2926 12.1037 58.3201 11.8223ZM61.4953 11.8223C61.4953 10.895 61.0776 10.3528 60.3445 10.3528C59.6086 10.3528 59.1946 10.895 59.1946 11.8223C59.1946 12.757 59.6086 13.2951 60.3445 13.2951C61.0776 13.2951 61.4953 12.7533 61.4953 11.8223H61.4953Z" fill="white"/>
<path d="M63.2578 12.7533C63.2578 11.9832 63.8328 11.5393 64.8533 11.4762L66.0153 11.4094V11.0402C66.0153 10.5884 65.7158 10.3333 65.1371 10.3333C64.6645 10.3333 64.337 10.5063 64.243 10.8087H63.4234C63.5099 10.074 64.203 9.60269 65.1762 9.60269C66.2516 9.60269 66.8582 10.1366 66.8582 11.0402V13.963H66.0432V13.3619H65.9763C65.8403 13.5775 65.6494 13.7533 65.423 13.8713C65.1966 13.9893 64.9429 14.0453 64.6877 14.0335C64.5077 14.0522 64.3256 14.033 64.1534 13.9773C63.9812 13.9215 63.8227 13.8304 63.6879 13.7098C63.5532 13.5891 63.4453 13.4417 63.3712 13.277C63.2972 13.1122 63.2585 12.9338 63.2578 12.7533ZM66.0153 12.3877V12.0301L64.9678 12.0969C64.377 12.1363 64.1091 12.3367 64.1091 12.7138C64.1091 13.0988 64.444 13.3229 64.9045 13.3229C65.0395 13.3365 65.1758 13.3229 65.3054 13.2829C65.4349 13.243 65.5551 13.1774 65.6587 13.0901C65.7624 13.0029 65.8474 12.8957 65.9086 12.7751C65.9699 12.6544 66.0062 12.5227 66.0153 12.3877Z" fill="white"/>
<path d="M67.9707 11.8223C67.9707 10.4706 68.6675 9.61428 69.7514 9.61428C70.0195 9.60197 70.2855 9.666 70.5185 9.7989C70.7514 9.9318 70.9416 10.1281 71.0669 10.3648H71.1301V8.01532H71.9767V13.963H71.1655V13.2872H71.0985C70.9636 13.5223 70.7668 13.7161 70.5293 13.8477C70.2919 13.9792 70.0228 14.0435 69.7514 14.0335C68.6601 14.0336 67.9707 13.1772 67.9707 11.8223ZM68.8453 11.8223C68.8453 12.7296 69.2741 13.2756 69.9914 13.2756C70.705 13.2756 71.146 12.7217 71.146 11.826C71.146 10.9345 70.7004 10.3727 69.9914 10.3727C69.2788 10.3727 68.8452 10.9224 68.8452 11.8223H68.8453Z" fill="white"/>
<path d="M75.4798 11.8223C75.4528 11.5412 75.4851 11.2575 75.5745 10.9896C75.6639 10.7216 75.8084 10.4752 75.9989 10.2662C76.1894 10.0572 76.4216 9.89027 76.6805 9.77601C76.9395 9.66175 77.2196 9.60272 77.5028 9.60272C77.786 9.60272 78.0661 9.66175 78.3251 9.77601C78.584 9.89027 78.8162 10.0572 79.0067 10.2662C79.1972 10.4752 79.3417 10.7216 79.4311 10.9896C79.5205 11.2575 79.5528 11.5412 79.5258 11.8223C79.5533 12.1037 79.5214 12.3877 79.4323 12.6561C79.3431 12.9245 79.1986 13.1713 79.0081 13.3807C78.8176 13.5901 78.5852 13.7575 78.326 13.872C78.0667 13.9865 77.7863 14.0456 77.5028 14.0456C77.2193 14.0456 76.9389 13.9865 76.6796 13.872C76.4204 13.7575 76.188 13.5901 75.9975 13.3807C75.807 13.1713 75.6625 12.9245 75.5733 12.6561C75.4842 12.3877 75.4523 12.1037 75.4798 11.8223ZM78.655 11.8223C78.655 10.895 78.2373 10.3528 77.5042 10.3528C76.7683 10.3528 76.3543 10.895 76.3543 11.8223C76.3543 12.757 76.7683 13.2951 77.5042 13.2951C78.2373 13.2951 78.655 12.7533 78.655 11.8223Z" fill="white"/>
<path d="M80.6616 9.68524H81.4766V10.3648H81.5399C81.6472 10.1207 81.8282 9.91612 82.0577 9.7795C82.2871 9.64289 82.5536 9.58107 82.82 9.60266C83.0287 9.58701 83.2383 9.6184 83.4332 9.69449C83.6282 9.77058 83.8034 9.88943 83.946 10.0422C84.0886 10.195 84.1949 10.3779 84.257 10.5772C84.3191 10.7765 84.3355 10.9872 84.3048 11.1937V13.963H83.4582V11.4057C83.4582 10.7183 83.1587 10.3764 82.5325 10.3764C82.3908 10.3698 82.2493 10.3939 82.1178 10.4469C81.9863 10.4999 81.8678 10.5807 81.7705 10.6837C81.6733 10.7866 81.5994 10.9094 81.5542 11.0434C81.5089 11.1775 81.4932 11.3198 81.5082 11.4605V13.963H80.6616V9.68524Z" fill="white"/>
<path d="M89.0886 8.62021V9.70473H90.018V10.4158H89.0886V12.6155C89.0886 13.0636 89.2737 13.2598 89.6952 13.2598C89.8031 13.2595 89.9109 13.253 90.018 13.2403V13.9435C89.866 13.9707 89.7119 13.9851 89.5575 13.9867C88.616 13.9867 88.2411 13.6564 88.2411 12.8317V10.4158H87.5601V9.70469H88.2411V8.62021H89.0886Z" fill="white"/>
<path d="M91.1743 8.01532H92.0135V10.3727H92.0805C92.193 10.1263 92.379 9.92058 92.613 9.78345C92.8471 9.64632 93.1179 9.58449 93.3885 9.60639C93.5961 9.59512 93.8037 9.62969 93.9964 9.70763C94.1891 9.78557 94.3622 9.90496 94.5033 10.0573C94.6444 10.2096 94.75 10.3911 94.8127 10.5888C94.8754 10.7866 94.8935 10.9956 94.8658 11.2012V13.963H94.0184V11.4094C94.0184 10.7262 93.6992 10.3801 93.1011 10.3801C92.9556 10.3682 92.8092 10.3882 92.6722 10.4386C92.5353 10.489 92.411 10.5686 92.3081 10.6719C92.2052 10.7752 92.1262 10.8997 92.0766 11.0366C92.027 11.1735 92.008 11.3196 92.021 11.4646V13.963H91.1744L91.1743 8.01532Z" fill="white"/>
<path d="M99.8026 12.808C99.6876 13.199 99.4383 13.5371 99.0985 13.7634C98.7587 13.9896 98.35 14.0895 97.9438 14.0456C97.6611 14.053 97.3803 13.999 97.1207 13.8874C96.8611 13.7757 96.6289 13.6091 96.4404 13.399C96.2519 13.1889 96.1114 12.9405 96.0288 12.6708C95.9462 12.4012 95.9235 12.1169 95.9621 11.8376C95.9245 11.5574 95.9477 11.2725 96.0301 11.0021C96.1125 10.7316 96.2522 10.482 96.4397 10.2701C96.6273 10.0582 96.8583 9.8889 97.1171 9.77375C97.376 9.6586 97.6566 9.60026 97.94 9.60267C99.1337 9.60267 99.8538 10.4159 99.8538 11.7592V12.0538H96.8246V12.1011C96.8113 12.2581 96.8311 12.4161 96.8827 12.565C96.9342 12.7139 97.0164 12.8504 97.124 12.9658C97.2315 13.0812 97.3621 13.1729 97.5073 13.235C97.6525 13.2971 97.809 13.3283 97.967 13.3266C98.1695 13.3508 98.3747 13.3144 98.5564 13.2221C98.7382 13.1298 98.8883 12.9856 98.9876 12.808L99.8026 12.808ZM96.8245 11.4294H98.9913C99.002 11.2858 98.9824 11.1416 98.9339 11.006C98.8853 10.8704 98.8089 10.7465 98.7094 10.6421C98.61 10.5377 98.4897 10.4553 98.3564 10.4C98.2231 10.3448 98.0797 10.3179 97.9354 10.3212C97.7889 10.3194 97.6436 10.3468 97.508 10.4018C97.3724 10.4569 97.2492 10.5384 97.1456 10.6417C97.0421 10.745 96.9604 10.8679 96.9052 11.0032C96.8501 11.1385 96.8227 11.2834 96.8246 11.4294H96.8245Z" fill="white"/>
</svg>
