<svg width="32" height="12" viewBox="0 0 32 12" fill="none" xmlns="http://www.w3.org/2000/svg">
<path d="M13.5305 0.828125C13.5305 1.13922 13.5305 1.45031 13.5305 1.7614C13.5305 2.8785 13.5305 3.9956 13.5305 5.11977C13.5305 5.14805 13.5305 5.16927 13.5305 5.20462C9.01307 5.20462 4.51018 5.20462 0 5.20462C0 3.74814 0 2.29167 0 0.828125C4.51018 0.828125 9.02036 0.828125 13.5305 0.828125Z" fill="#2699D6"/>
<path d="M0 6.78906C0.0291449 6.78906 0.0510152 6.78906 0.0801601 6.78906C4.53205 6.78906 8.98393 6.78906 13.4431 6.78906C13.4722 6.78906 13.4941 6.78906 13.5305 6.78906C13.5305 8.24554 13.5305 9.70201 13.5305 11.1585C13.5014 11.1585 13.4722 11.1585 13.4431 11.1585C8.99121 11.1585 4.53932 11.1585 0.0874312 11.1585C0.0582863 11.1585 0.0291449 11.1585 0 11.1585C0 9.70908 0 8.25261 0 6.78906Z" fill="#75B843"/>
<path d="M30.3453 0.828594C30.4327 0.842734 30.5202 0.856875 30.6076 0.878086C31.3289 1.03363 31.7661 1.47906 31.9264 2.16487C32.043 2.64565 32.0211 3.12643 31.8026 3.586C31.5621 4.09505 31.1468 4.39908 30.5857 4.49806C30.0757 4.58997 29.573 4.54048 29.0848 4.36372C29.0411 4.34958 28.9828 4.35665 28.939 4.37079C28.633 4.43443 28.327 4.44857 28.0137 4.44857C26.4836 4.4415 24.9462 4.44857 23.4161 4.44857C23.3942 4.44857 23.3651 4.44857 23.3359 4.44857C23.3724 4.20111 23.4161 3.95365 23.4525 3.70619C23.4671 3.70619 23.4744 3.69912 23.489 3.69912C24.0354 3.69912 24.5819 3.69912 25.1284 3.69912C25.2304 3.69912 25.3324 3.7274 25.4344 3.73447C25.4344 3.57185 25.4344 3.40217 25.4344 3.22541C25.4344 2.98502 25.4344 2.73756 25.4271 2.49718C25.4198 2.29921 25.3688 2.10124 25.2595 1.93155C25.1211 1.71945 24.9243 1.61339 24.6693 1.61339C24.3633 1.61339 24.0646 1.61339 23.7586 1.61339C23.7367 1.61339 23.7148 1.61339 23.6857 1.61339C23.7221 1.36593 23.7585 1.11847 23.795 0.871015C23.8095 0.871015 23.8241 0.863945 23.8387 0.863945C24.1739 0.863945 24.5017 0.856875 24.8369 0.863945C25.1721 0.871015 25.4854 0.948788 25.7695 1.13261C26.1266 1.36593 26.3379 1.70531 26.4253 2.10124C26.469 2.29214 26.4909 2.4901 26.4982 2.68807C26.5127 2.99916 26.4982 3.31026 26.4982 3.62135C26.4982 3.64256 26.4982 3.66377 26.4982 3.69205C26.52 3.69205 26.5419 3.69205 26.5565 3.69205C27.1612 3.69205 27.7733 3.69205 28.378 3.69205C28.4217 3.69205 28.4509 3.68498 28.4582 3.64256C28.4727 3.57185 28.5019 3.50822 28.5019 3.43752C28.5019 2.92139 28.5019 2.41233 28.5019 1.8962C28.5019 1.6841 28.5602 1.4932 28.684 1.31644C28.8152 1.13261 29.0046 1.03363 29.2159 0.962929C29.4272 0.885156 29.6531 0.849804 29.879 0.828594C29.8936 0.828594 29.9081 0.821523 29.9154 0.814453C30.0538 0.828594 30.1996 0.828594 30.3453 0.828594ZM29.5147 3.61428C29.7551 3.66377 29.9883 3.68498 30.2287 3.67791C30.5275 3.67084 30.7533 3.54357 30.8626 3.26783C31.0229 2.8719 31.0156 2.46889 30.8772 2.07296C30.8043 1.86085 30.6368 1.73359 30.4109 1.70531C30.2797 1.69117 30.1486 1.69824 30.0174 1.70531C29.828 1.71238 29.6385 1.7548 29.4637 1.84671C29.5219 1.93862 29.522 2.04468 29.522 2.14366C29.522 2.5396 29.522 2.93553 29.522 3.33854C29.5147 3.42338 29.5147 3.51529 29.5147 3.61428Z" fill="#070706"/>
<path d="M18.233 0.933984C18.1965 1.18144 18.1601 1.4289 18.1237 1.67636C18.0945 1.67636 18.0727 1.67636 18.0508 1.67636C17.7594 1.67636 17.4606 1.67636 17.1692 1.67636C16.7029 1.67636 16.4187 1.89554 16.324 2.3339C16.3021 2.43288 16.2803 2.53893 16.2803 2.63792C16.2803 2.91366 16.2657 3.1894 16.2948 3.45807C16.3386 3.87521 16.6519 4.13681 17.089 4.14388C17.7521 4.15095 18.4151 4.14388 19.0782 4.15095C19.7849 4.15095 20.4917 4.15802 21.1985 4.15802C21.2786 4.15802 21.3588 4.15095 21.4316 4.12974C21.6866 4.06611 21.8251 3.84693 21.7887 3.57119C21.7595 3.33787 21.5555 3.16819 21.2932 3.16819C20.9362 3.16819 20.5864 3.16819 20.2294 3.16819C19.9817 3.16819 19.7412 3.12576 19.5226 3.01264C19.2166 2.85709 19.0563 2.60257 19.0053 2.27733C18.9689 2.03694 18.9834 1.80363 19.0855 1.57738C19.2239 1.26629 19.4789 1.08953 19.7995 0.983475C20.0691 0.891562 20.3533 0.870352 20.6374 0.863281C21.4025 0.863281 22.1675 0.863281 22.9326 0.863281C22.9472 0.863281 22.9617 0.863281 22.9836 0.863281C22.9472 1.11074 22.9107 1.3582 22.867 1.61273C22.8379 1.61273 22.816 1.61273 22.7941 1.61273C22.0801 1.61273 21.3588 1.61273 20.6447 1.61273C20.5427 1.61273 20.4407 1.6198 20.346 1.64808C20.1128 1.70464 20.0254 1.84605 20.0327 2.10058C20.04 2.30561 20.1857 2.46116 20.3897 2.49651C20.448 2.50358 20.499 2.51065 20.5573 2.51065C20.907 2.51065 21.2568 2.51065 21.6065 2.51065C21.8907 2.51772 22.1602 2.58135 22.3861 2.75104C22.6994 2.97729 22.8379 3.28838 22.8379 3.6631C22.8379 3.854 22.816 4.03783 22.7359 4.22166C22.6047 4.53275 22.3497 4.70243 22.0364 4.79435C21.8032 4.86505 21.5628 4.89333 21.3223 4.89333C19.8432 4.89333 18.3568 4.89333 16.8777 4.89333C16.5644 4.89333 16.2657 4.83677 15.9888 4.69536C15.5881 4.49032 15.3549 4.15802 15.2602 3.74088C15.2238 3.57826 15.2019 3.40858 15.1946 3.24596C15.1873 2.9278 15.1728 2.60964 15.2311 2.29147C15.3185 1.84605 15.5152 1.47132 15.9087 1.20265C16.1491 1.04004 16.4187 0.941054 16.7102 0.933984C17.2129 0.919843 17.7156 0.926914 18.2184 0.919843C18.2184 0.926914 18.2257 0.933984 18.233 0.933984Z" fill="#070706"/>
<path d="M18.2909 11.06C17.9412 11.06 17.5914 11.06 17.2344 11.06C17.2344 11.0317 17.2344 11.0105 17.2344 10.9893C17.2344 10.2893 17.2344 9.59645 17.2344 8.89649C17.2344 8.82579 17.2271 8.74802 17.2125 8.67732C17.1688 8.5147 17.0522 8.42279 16.8774 8.40157C16.6588 8.37329 16.4548 8.42279 16.2508 8.49349C16.2508 9.34192 16.2508 10.1974 16.2508 11.0529C15.8937 11.0529 15.5367 11.0529 15.1797 11.0529C15.1797 11.0317 15.1797 11.0105 15.1797 10.9893C15.1797 10.0984 15.1797 9.20758 15.1797 8.31673C15.1797 8.26017 15.1797 8.20361 15.187 8.14705C15.2161 7.96322 15.3254 7.82888 15.5003 7.77232C15.7116 7.70162 15.9302 7.64506 16.156 7.60264C16.4329 7.54607 16.7098 7.539 16.9867 7.55314C17.249 7.56728 17.5113 7.60971 17.7371 7.75111C17.8027 7.79353 17.8464 7.79353 17.9193 7.76525C18.4366 7.56021 18.9612 7.48951 19.5077 7.61678C19.9886 7.7299 20.2728 8.0622 20.3165 8.54298C20.3238 8.63489 20.3311 8.72681 20.3311 8.81165C20.3311 9.53989 20.3311 10.2611 20.3311 10.9893C20.3311 11.0105 20.3311 11.0317 20.3311 11.06C19.9813 11.06 19.6316 11.06 19.2818 11.06C19.2818 11.0388 19.2818 11.0176 19.2818 10.9964C19.2818 10.2964 19.2818 9.59645 19.2818 8.90356C19.2818 8.83993 19.2818 8.7763 19.2673 8.71974C19.2235 8.5147 19.0705 8.40157 18.8228 8.40157C18.6188 8.40157 18.4221 8.444 18.2326 8.53591C18.3128 8.67731 18.2982 8.83286 18.2982 8.98841C18.2982 9.66008 18.2982 10.3247 18.2982 10.9964C18.2909 11.0105 18.2909 11.0317 18.2909 11.06Z" fill="#070706"/>
<path d="M27.0586 7.70077C27.0586 7.19171 27.0586 6.68972 27.0586 6.18066C27.4157 6.1241 27.7654 6.06047 28.1297 6.00391C28.1297 6.02512 28.1297 6.04633 28.1297 6.06754C28.1297 7.49573 28.1297 8.93099 28.1297 10.3592C28.1297 10.4228 28.1224 10.4865 28.1151 10.543C28.086 10.7198 27.9694 10.8258 27.8091 10.8895C27.5687 10.9884 27.3137 11.0379 27.0586 11.0662C26.789 11.0945 26.5267 11.1086 26.2571 11.0804C25.5504 11.0167 24.9821 10.6561 24.8072 9.87841C24.6979 9.36935 24.7198 8.86736 24.9238 8.37951C25.1278 7.91288 25.5067 7.66542 26.0167 7.58765C26.3664 7.53815 26.6943 7.58764 27.0222 7.68663C27.0368 7.6937 27.0441 7.6937 27.0586 7.70077ZM27.0659 8.44315C26.9129 8.41487 26.7672 8.37244 26.6142 8.3583C26.2717 8.32295 25.973 8.45022 25.8637 8.82494C25.8345 8.92392 25.82 9.02998 25.8054 9.13603C25.7835 9.36935 25.7908 9.5956 25.8637 9.82185C25.9584 10.1259 26.1551 10.3097 26.4903 10.338C26.6798 10.3521 26.8619 10.3168 27.044 10.2814C27.0513 10.2814 27.0659 10.2531 27.0659 10.2319C27.0659 10.1047 27.0659 9.97032 27.0659 9.84306C27.0659 9.38349 27.0659 8.92392 27.0659 8.44315Z" fill="#070706"/>
<path d="M21.1503 8.61232C21.1139 8.35779 21.0774 8.11741 21.0337 7.86995C21.1139 7.84874 21.194 7.82045 21.2742 7.79924C21.5729 7.70733 21.8789 7.62249 22.1922 7.58007C22.6148 7.5235 23.0374 7.50936 23.4455 7.6437C23.8535 7.77803 24.0867 8.06084 24.1522 8.47799C24.1668 8.5699 24.1741 8.66182 24.1741 8.74666C24.1741 9.53146 24.1741 10.3163 24.1741 11.1011C24.1741 11.1152 24.1741 11.1293 24.1741 11.1576C24.0648 11.1364 23.9555 11.1152 23.8535 11.1011C23.613 11.0586 23.3726 11.0162 23.1321 10.9738C23.0811 10.9667 23.0156 10.9879 22.9646 10.995C22.644 11.0586 22.3234 11.1011 21.9955 11.0728C21.7988 11.0586 21.6021 11.0091 21.4199 10.9243C21.0264 10.7263 20.8807 10.3657 20.9099 9.96981C20.9317 9.69407 21.0264 9.45369 21.2523 9.27693C21.4199 9.14966 21.6166 9.07896 21.8206 9.03654C22.0611 8.98705 22.3015 8.97291 22.542 8.97291C22.746 8.97291 22.95 8.97291 23.1613 8.97291C23.1613 8.83857 23.1759 8.70424 23.1249 8.57697C23.0593 8.41436 22.9281 8.35072 22.7678 8.32244C22.5638 8.28709 22.3598 8.31537 22.1558 8.33658C21.8133 8.40022 21.4855 8.4992 21.1503 8.61232ZM23.1686 10.3021C23.1686 10.0688 23.1686 9.83548 23.1686 9.60216C23.1613 9.60216 23.154 9.59509 23.154 9.59509C22.9427 9.59509 22.7314 9.59509 22.5274 9.59509C22.4472 9.59509 22.3671 9.60216 22.2942 9.6163C22.0829 9.65872 21.9518 9.81427 21.9445 10.0193C21.9445 10.2173 22.0538 10.3587 22.2651 10.4082C22.3088 10.4152 22.3525 10.4223 22.4035 10.4223C22.6658 10.4435 22.9209 10.3657 23.1686 10.3021Z" fill="#070706"/>
<path d="M30.9605 8.99474C30.9605 8.88161 30.9751 8.78263 30.9605 8.68364C30.9314 8.49275 30.7856 8.37255 30.5743 8.34427C30.3412 8.31599 30.108 8.34427 29.8821 8.37255C29.5761 8.41498 29.292 8.50689 29.0005 8.5988C28.9859 8.60587 28.9786 8.60587 28.9568 8.61294C28.9204 8.36548 28.8839 8.11802 28.8475 7.87057C28.9932 7.82814 29.1389 7.78572 29.2847 7.7433C29.7073 7.62311 30.1371 7.53826 30.5816 7.54533C30.8658 7.5524 31.1499 7.58775 31.4122 7.71502C31.7328 7.87764 31.9077 8.13923 31.9587 8.47861C31.9733 8.57052 31.9806 8.66243 31.9806 8.75435C31.9806 9.53915 31.9806 10.3239 31.9806 11.1017C31.9806 11.1158 31.9806 11.13 31.9806 11.1582C31.8713 11.137 31.7693 11.1229 31.6673 11.1017C31.4268 11.0593 31.1791 11.0168 30.9386 10.9744C30.8876 10.9673 30.8221 10.9885 30.7711 10.9956C30.4505 11.0593 30.1299 11.1017 29.802 11.0734C29.6053 11.0593 29.4085 11.0098 29.2264 10.9178C28.8256 10.7128 28.6799 10.3452 28.7163 9.94215C28.7382 9.68055 28.8329 9.4543 29.0515 9.28462C29.2045 9.16442 29.3867 9.09372 29.5761 9.0513C29.8238 8.99474 30.0789 8.97353 30.3339 8.97353C30.5233 8.97353 30.7055 8.97353 30.8949 8.97353C30.9168 8.99474 30.9386 8.99474 30.9605 8.99474ZM30.9824 10.3027C30.9824 10.0694 30.9824 9.8361 30.9824 9.60278C30.7346 9.60278 30.4869 9.59571 30.2464 9.60278C30.159 9.60278 30.0716 9.63106 29.9914 9.65934C29.8166 9.73004 29.7364 9.88559 29.751 10.0765C29.7656 10.2462 29.8676 10.3664 30.0497 10.4088C30.1007 10.4229 30.159 10.43 30.21 10.43C30.4796 10.4441 30.7273 10.3664 30.9824 10.3027Z" fill="#070706"/>
</svg>
