<svg width="27" height="16" viewBox="0 0 27 16" fill="none" xmlns="http://www.w3.org/2000/svg">
<g clip-path="url(#clip0_197_3251)">
<path d="M16.5503 13.9488H9.98633V1.64111H16.5504L16.5503 13.9488Z" fill="#FF5F00"/>
<path d="M10.6766 7.79487C10.6766 5.30864 11.8506 3.09389 13.6788 1.66662C12.2949 0.584648 10.5833 -0.00257345 8.82107 8.47801e-06C4.47993 8.47801e-06 0.960938 3.48984 0.960938 7.79487C0.960938 12.0999 4.47993 15.5897 8.82107 15.5897C10.5834 15.5923 12.295 15.0051 13.6789 13.9231C11.8508 12.4961 10.6766 10.2812 10.6766 7.79487Z" fill="#EB001B"/>
<path d="M25.9875 7.79487C25.9875 12.0999 22.4687 15.5897 18.1277 15.5897C16.3653 15.5923 14.6536 15.0051 13.2695 13.9231C15.0981 12.4958 16.2721 10.2812 16.2721 7.79487C16.2721 5.30852 15.0981 3.09389 13.2695 1.66662C14.6536 0.58468 16.3652 -0.0025282 18.1276 8.1823e-06C22.4685 8.1823e-06 25.9874 3.48984 25.9874 7.79487" fill="#F79E1B"/>
</g>
<defs>
<clipPath id="clip0_197_3251">
<rect width="25.8462" height="16" fill="white" transform="translate(0.960938)"/>
</clipPath>
</defs>
</svg>
