<svg xmlns="http://www.w3.org/2000/svg" width="401.168" height="401.981" viewBox="0 0 401.168 401.981">
  <path id="Union_60_2_" d="M220.452,472.871c-103.379-1.657-188.7-79.507-197.484-180.186S84.795,101.165,186.4,82.431A131.336,131.336,0,0,1,206.3,80.383a159.679,159.679,0,0,0-44.8,12.545A187.883,187.883,0,0,0,91.3,144.343,178.249,178.249,0,0,0,48.072,259.993a176.781,176.781,0,0,0,18.862,83.923,189.294,189.294,0,0,0,54.491,65.246c82.766,62.46,201.663,47.572,265.643-33.263a180.55,180.55,0,0,0,35.891-77.527,12.174,12.174,0,0,0,.262-3.072,18.961,18.961,0,0,1-.262,6.657,190.286,190.286,0,0,1-55.015,111.3A203.731,203.731,0,0,1,223.6,472.615a13.056,13.056,0,0,1-3.144.256Zm35.367-38.89a141.482,141.482,0,0,0,68.637-30.7,181.549,181.549,0,0,0,53.181-78.039c4.716-12.8,8.907-25.843,13.361-38.89a291.175,291.175,0,0,0,8.645-29.425c1.834-7.425,3.668-14.849,6.025-22.259a145.741,145.741,0,0,1-3.144,79.317,176.255,176.255,0,0,1-37.2,64.989,167.372,167.372,0,0,1-99.288,54.243,41.607,41.607,0,0,1-8.121.768Zm-100.075-19.97a508.57,508.57,0,0,0,149.85-96.717,317.312,317.312,0,0,0,48.727-59.858,233.153,233.153,0,0,0,20.7-42.984,172.8,172.8,0,0,0-39.558-55.01,135.134,135.134,0,0,0-19.386-15.106c-6.025-3.84-12.051-7.169-17.814-11.265a211.582,211.582,0,0,0-9.431-30.945,179.41,179.41,0,0,1,73.353,46.057c6.811,7.425,13.1,15.362,19.648,23.283a73.047,73.047,0,0,0-11.789-38.891A89.865,89.865,0,0,0,348.3,112.361a67.9,67.9,0,0,1,38.51,28.4,88.162,88.162,0,0,1,12.313,36.589,162.664,162.664,0,0,1-10.479,74.2,293.271,293.271,0,0,1-72.305,108.742,398.378,398.378,0,0,1-61.564,48.612,262.268,262.268,0,0,1-42.7,23.027,154.214,154.214,0,0,1-56.324-17.909ZM77.151,331.878c-3.144-6.913-5.763-13.826-8.383-20.726a153.41,153.41,0,0,0,15.195-5.633,431.417,431.417,0,0,0,82.522-44.264A252.716,252.716,0,0,0,226.215,200.1q12.575-19.2,23.578-39.147a126.757,126.757,0,0,0,12.836-40.171,177.354,177.354,0,0,0-97.979,5.12A165.46,165.46,0,0,0,58.027,250.512c.262-3.84.786-7.681,1.31-11.521A173.37,173.37,0,0,1,162.031,109.032a191.941,191.941,0,0,1,97.454-13.314A58.511,58.511,0,0,0,236.694,70.9h.262a51.7,51.7,0,0,1,36.414,29.681,68.721,68.721,0,0,1,5.24,22.771,127.33,127.33,0,0,1-6.549,49.638,225.951,225.951,0,0,1-42.7,73.946,302.066,302.066,0,0,1-64.708,58.336,449.277,449.277,0,0,1-38.772,22.771c-13.623,7.169-27.769,13.314-41.654,19.458-2.1-5.377-4.978-10.492-7.073-15.61Z" transform="translate(-22.231 -70.9)" fill="#29398c"/>
</svg>
