<?xml version="1.0" encoding="UTF-8"?>
<svg id="Layer_2" xmlns="http://www.w3.org/2000/svg" version="1.1" viewBox="0 0 2424 654.7">
  <!-- Generator: Adobe Illustrator 29.6.0, SVG Export Plug-In . SVG Version: 2.1.1 Build 207)  -->
  <defs>
    <style>
      .st0 {
        fill: #f6b92a;
      }

      .st1 {
        fill: #9732a4;
      }
    </style>
  </defs>
  <g id="Layer_1-2">
    <g>
      <g>
        <path class="st1" d="M1528.8,557.3c0-4.4.8-8.6,2.5-12.5,1.7-3.9,3.9-7.3,6.8-10.2s6.3-5.2,10.2-6.9c3.9-1.7,8.1-2.6,12.5-2.6s8.6.8,12.5,2.6,7.3,4,10.2,6.9,5.2,6.3,6.9,10.2c1.7,3.9,2.6,8.1,2.6,12.5v25c0,4.4-.8,8.6-2.6,12.5-1.7,3.9-4,7.3-6.9,10.2s-6.3,5.2-10.2,6.8-8.1,2.5-12.5,2.5-8.6-.8-12.5-2.5-7.3-3.9-10.2-6.8-5.2-6.3-6.8-10.2-2.5-8.1-2.5-12.5v-25ZM1537.4,582.3c0,3.2.6,6.3,1.9,9.1s2.9,5.3,5.1,7.5,4.6,3.8,7.5,5,5.9,1.9,9.1,1.9,6.3-.6,9.1-1.9,5.4-2.9,7.5-5c2.2-2.1,3.9-4.6,5.1-7.5s1.9-5.9,1.9-9.1v-25c0-3.2-.6-6.3-1.9-9.1-1.2-2.9-2.9-5.4-5.1-7.5s-4.7-3.9-7.5-5.1c-2.9-1.2-5.9-1.9-9.1-1.9s-6.3.6-9.1,1.9-5.3,3-7.5,5.1-3.8,4.7-5.1,7.5c-1.2,2.9-1.9,5.9-1.9,9.1v25Z"/>
        <path class="st1" d="M1600.3,580.5c0-4.6.9-8.9,2.6-13,1.8-4.1,4.1-7.6,7.1-10.6,3-3,6.5-5.4,10.6-7.1,4.1-1.8,8.4-2.6,13-2.6s8.9.9,13,2.6c4.1,1.8,7.6,4.1,10.6,7.1,3,3,5.4,6.5,7.1,10.6s2.6,8.4,2.6,13v29.6c0,1.2-.4,2.2-1.2,3-.8.8-1.8,1.2-3,1.2s-2.2-.4-3-1.2c-.8-.8-1.2-1.8-1.2-3v-29.6c0-3.4-.7-6.6-1.9-9.6-1.3-3-3.1-5.6-5.3-7.9s-4.9-4-7.9-5.3c-3-1.3-6.2-1.9-9.6-1.9s-6.6.7-9.6,1.9c-3,1.3-5.6,3.1-7.9,5.3-2.3,2.3-4,4.9-5.3,7.9-1.3,3-1.9,6.2-1.9,9.6v29.6c0,1.2-.4,2.2-1.2,3-.8.8-1.8,1.2-3,1.2s-2.2-.4-3.1-1.2-1.2-1.8-1.2-3v-29.6Z"/>
        <path class="st1" d="M1701.7,610.1c0,1.2-.4,2.2-1.2,3-.8.8-1.8,1.2-3,1.2-4.2,0-7.8-.9-10.7-2.5s-5.2-3.5-7-5.8-3.1-4.8-3.9-7.3-1.2-4.9-1.2-6.9v-62.7c0-1.2.4-2.2,1.2-3s1.8-1.2,3-1.2,2.2.4,3,1.2c.8.8,1.2,1.8,1.2,3v62.7c0,.7.2,1.8.5,3.3.3,1.5,1,3,2,4.6s2.4,3,4.3,4.2c1.8,1.2,4.3,1.8,7.3,1.9,1.2,0,2.2.4,3,1.2.8.8,1.2,1.8,1.2,3h0Z"/>
        <path class="st1" d="M1704.5,532.4c0-1.6.6-2.9,1.7-4,1.1-1.1,2.4-1.7,4-1.7s2.9.5,4,1.7c1.1,1.1,1.7,2.5,1.7,4s-.6,2.9-1.7,4c-1.1,1.1-2.4,1.7-4,1.7s-2.9-.5-4-1.7c-1.1-1.1-1.7-2.5-1.7-4ZM1705.9,551.6c0-1.2.4-2.2,1.2-3,.8-.8,1.8-1.2,3-1.2s2.2.4,3,1.2c.8.8,1.2,1.8,1.2,3v58.5c0,1.2-.4,2.2-1.2,3-.8.8-1.8,1.2-3,1.2s-2.2-.4-3-1.2c-.8-.8-1.2-1.8-1.2-3v-58.5Z"/>
        <path class="st1" d="M1722.1,580.5c0-4.6.9-8.9,2.6-13,1.8-4.1,4.1-7.6,7.1-10.6,3-3,6.5-5.4,10.6-7.1,4.1-1.8,8.4-2.6,13-2.6s8.9.9,13,2.6c4.1,1.8,7.6,4.1,10.6,7.1,3,3,5.4,6.5,7.1,10.6s2.6,8.4,2.6,13v29.6c0,1.2-.4,2.2-1.2,3-.8.8-1.8,1.2-3,1.2s-2.2-.4-3-1.2c-.8-.8-1.2-1.8-1.2-3v-29.6c0-3.4-.7-6.6-1.9-9.6-1.3-3-3.1-5.6-5.3-7.9s-4.9-4-7.9-5.3c-3-1.3-6.2-1.9-9.6-1.9s-6.6.7-9.6,1.9c-3,1.3-5.6,3.1-7.9,5.3-2.3,2.3-4,4.9-5.3,7.9-1.3,3-1.9,6.2-1.9,9.6v29.6c0,1.2-.4,2.2-1.2,3-.8.8-1.8,1.2-3,1.2s-2.2-.4-3.1-1.2-1.2-1.8-1.2-3v-29.6Z"/>
        <path class="st1" d="M1804.3,585.1c.5,3,1.4,5.7,2.9,8.2s3.3,4.7,5.5,6.6c2.2,1.8,4.6,3.3,7.4,4.4s5.7,1.6,8.7,1.6,6.6-.6,9.5-1.9c2.9-1.2,5.6-3,7.9-5.2.8-.8,1.8-1.2,3-1.2s2.2.4,3,1.2c.8.8,1.2,1.8,1.2,3s-.4,2.2-1.2,3c-3,3.4-6.5,5.8-10.3,7.3-3.8,1.4-8.2,2.1-13.2,2.1s-8.9-.8-12.9-2.5c-4-1.7-7.5-4-10.6-6.9-3-3-5.4-6.5-7.2-10.5s-2.6-8.5-2.6-13.3.8-8.9,2.6-12.9c1.7-4,4.1-7.5,7.1-10.5,3-3,6.6-5.4,10.7-7.2s8.6-2.8,13.3-3c4.4,0,8.6.9,12.5,2.6s7.4,4.1,10.4,7c3,3,5.5,6.4,7.3,10.4,1.8,4,2.8,8.2,3,12.7.2,1.6-.2,2.8-1.2,3.6-1,.8-2,1.2-3.1,1.2h-53.7ZM1828.8,556.2c-3,0-5.9.5-8.6,1.6-2.7,1.1-5.2,2.5-7.3,4.3-2.2,1.8-4,3.9-5.4,6.4s-2.4,5.2-3,8h48.8c-.6-2.9-1.6-5.5-3-8-1.5-2.5-3.3-4.6-5.5-6.4-2.2-1.8-4.6-3.2-7.3-4.3s-5.6-1.6-8.6-1.6h0Z"/>
        <path class="st1" d="M1906.4,610.1c0-1.2.4-2.2,1.2-3s1.8-1.2,3-1.2h27.1c2.2,0,4.3-.4,6.2-1.2s3.6-1.9,5-3.3c1.4-1.4,2.5-3,3.3-4.9.8-1.9,1.2-3.9,1.2-6s-.4-4.1-1.2-6-1.9-3.5-3.3-4.9c-1.4-1.4-3-2.5-5-3.3s-4-1.2-6.2-1.2h-10.1c-3.4,0-6.6-.7-9.5-2-2.9-1.3-5.5-3.1-7.8-5.4-2.2-2.3-3.9-4.9-5.2-8-1.2-3-1.9-6.3-1.9-9.7s.6-6.6,1.9-9.5c1.2-3,3-5.5,5.2-7.8,2.2-2.2,4.8-4,7.8-5.3,2.9-1.3,6.1-1.9,9.5-1.9h28.5c1.2,0,2.2.4,3,1.2.8.8,1.2,1.8,1.2,3s-.4,2.2-1.2,3c-.8.8-1.8,1.2-3,1.2h-28.5c-2.2,0-4.3.4-6.2,1.2-1.9.8-3.6,2-5,3.5-1.4,1.5-2.6,3.2-3.4,5s-1.2,3.9-1.2,6.2.4,4.3,1.2,6.3c.8,2,2,3.7,3.4,5.3s3.1,2.7,5,3.6c1.9.9,3.9,1.3,6.2,1.3h10.1c3.4,0,6.6.6,9.6,1.9,2.9,1.2,5.5,3,7.8,5.2,2.2,2.2,3.9,4.8,5.2,7.8,1.2,3,1.9,6.1,1.9,9.4s-.6,6.5-1.9,9.4c-1.2,3-3,5.5-5.2,7.7-2.2,2.2-4.8,3.9-7.8,5.1-2.9,1.2-6.1,1.9-9.6,1.9h-27.1c-1.2,0-2.2-.4-3-1.2-.8-.8-1.2-1.8-1.2-3h0Z"/>
        <path class="st1" d="M1969.1,529.3c0-1.2.4-2.2,1.2-3,.8-.8,1.8-1.2,3-1.2s2.2.4,3,1.2c.8.8,1.2,1.8,1.2,3v29c3-3.4,6.7-6.1,10.9-8.1,4.2-2,8.8-3,13.8-3s8.9.9,13,2.6c4.1,1.8,7.6,4.1,10.6,7.1s5.4,6.5,7.1,10.6,2.6,8.4,2.6,13v29.6c0,1.2-.4,2.2-1.2,3-.8.8-1.8,1.2-3.1,1.2s-2.2-.4-3-1.2c-.8-.8-1.2-1.8-1.2-3v-29.6c0-3.4-.7-6.6-1.9-9.6-1.3-3-3.1-5.6-5.3-7.9s-4.9-4-7.9-5.3c-3-1.3-6.2-1.9-9.6-1.9s-6.5.6-9.4,1.9c-2.9,1.2-5.5,2.9-7.8,5-2.2,2.1-4,4.6-5.4,7.5s-2.1,6-2.2,9.3v30.6c0,1.2-.4,2.2-1.2,3s-1.8,1.2-3,1.2-2.2-.4-3-1.2c-.8-.8-1.2-1.8-1.2-3v-80.9h0Z"/>
        <path class="st1" d="M2074,547.4c4.4,0,8.6.9,12.7,2.7s7.5,4.2,10.6,7.3c3,3,5.5,6.6,7.3,10.7s2.7,8.4,2.7,13-.9,8.8-2.6,12.8c-1.8,4-4.1,7.5-7.1,10.6-3,3-6.5,5.4-10.6,7.2s-8.4,2.6-13.1,2.6-8.9-.8-12.9-2.5c-4-1.7-7.5-4-10.6-6.9-3-3-5.4-6.5-7.2-10.5s-2.6-8.5-2.6-13.3.8-8.9,2.6-12.9c1.7-4,4.1-7.5,7.1-10.5,3-3,6.6-5.4,10.6-7.2,4.1-1.8,8.6-2.8,13.4-3h0ZM2048.9,581c0,3.4.6,6.6,1.9,9.6,1.3,3,3.1,5.6,5.3,7.9s4.9,4,7.9,5.3c3,1.3,6.2,1.9,9.6,1.9s6.6-.6,9.7-1.9c3-1.3,5.7-3.1,7.9-5.3s4-4.9,5.3-7.9,1.9-6.2,1.9-9.6-.6-6.6-1.9-9.7c-1.3-3-3.1-5.7-5.3-8s-4.9-4-7.9-5.3c-3.1-1.3-6.3-1.9-9.7-1.9s-6.6.7-9.6,1.9c-3,1.3-5.6,3.1-7.9,5.3s-4,4.9-5.3,8c-1.3,3-1.9,6.3-1.9,9.7Z"/>
        <path class="st1" d="M2147.8,614.4c-5.2-.2-9.9-1.5-14.1-3.9s-7.9-5.3-10.9-8.6v33.3c0,1.2-.4,2.2-1.2,3-.8.8-1.8,1.2-3,1.2s-2.2-.4-3-1.2-1.2-1.8-1.2-3v-54.4c0-4.8.9-9.2,2.6-13.3,1.8-4.1,4.1-7.6,7.2-10.5,3.1-3,6.6-5.3,10.6-6.9,4-1.7,8.3-2.5,12.9-2.5s9.1.9,13.1,2.6c4.1,1.8,7.6,4.2,10.6,7.2,3,3,5.4,6.6,7.1,10.6s2.6,8.3,2.6,12.8-.9,9-2.7,13c-1.8,4.1-4.2,7.6-7.3,10.7-3,3-6.6,5.5-10.6,7.3s-8.2,2.7-12.7,2.7h0ZM2122.8,580.8c0,3.6.8,6.9,2.2,10,1.4,3,3.2,5.7,5.4,7.9,2.2,2.2,4.8,3.9,7.7,5.2,2.9,1.2,6.1,1.9,9.4,1.9s6.6-.6,9.7-1.9c3-1.3,5.7-3.1,7.9-5.3,2.3-2.3,4-4.9,5.3-8,1.3-3,1.9-6.3,1.9-9.7s-.6-6.6-1.9-9.6c-1.3-3-3.1-5.6-5.3-7.9-2.3-2.3-4.9-4-7.9-5.3-3.1-1.3-6.3-1.9-9.7-1.9s-6.6.7-9.6,1.9c-3,1.3-5.6,3.1-7.9,5.3-2.3,2.3-4,4.9-5.3,7.9-1.3,3-1.9,6.2-1.9,9.6h0Z"/>
        <path class="st1" d="M2219.6,614.4c-5.2-.2-9.9-1.5-14.1-3.9s-7.9-5.3-10.9-8.6v33.3c0,1.2-.4,2.2-1.2,3-.8.8-1.8,1.2-3,1.2s-2.2-.4-3-1.2-1.2-1.8-1.2-3v-54.4c0-4.8.9-9.2,2.6-13.3,1.8-4.1,4.1-7.6,7.2-10.5,3.1-3,6.6-5.3,10.6-6.9,4-1.7,8.3-2.5,12.9-2.5s9.1.9,13.1,2.6c4.1,1.8,7.6,4.2,10.6,7.2,3,3,5.4,6.6,7.1,10.6s2.6,8.3,2.6,12.8-.9,9-2.7,13c-1.8,4.1-4.2,7.6-7.3,10.7-3,3-6.6,5.5-10.6,7.3s-8.2,2.7-12.7,2.7h0ZM2194.6,580.8c0,3.6.8,6.9,2.2,10,1.4,3,3.2,5.7,5.4,7.9,2.2,2.2,4.8,3.9,7.7,5.2,2.9,1.2,6.1,1.9,9.4,1.9s6.6-.6,9.7-1.9c3-1.3,5.7-3.1,7.9-5.3,2.3-2.3,4-4.9,5.3-8,1.3-3,1.9-6.3,1.9-9.7s-.6-6.6-1.9-9.6c-1.3-3-3.1-5.6-5.3-7.9-2.3-2.3-4.9-4-7.9-5.3-3.1-1.3-6.3-1.9-9.7-1.9s-6.6.7-9.6,1.9c-3,1.3-5.6,3.1-7.9,5.3-2.3,2.3-4,4.9-5.3,7.9-1.3,3-1.9,6.2-1.9,9.6h0Z"/>
        <path class="st1" d="M2256.3,532.4c0-1.6.6-2.9,1.7-4,1.1-1.1,2.4-1.7,4-1.7s2.9.5,4,1.7c1.1,1.1,1.7,2.5,1.7,4s-.6,2.9-1.7,4c-1.1,1.1-2.4,1.7-4,1.7s-2.9-.5-4-1.7c-1.1-1.1-1.7-2.5-1.7-4ZM2257.7,551.6c0-1.2.4-2.2,1.2-3,.8-.8,1.8-1.2,3-1.2s2.2.4,3,1.2,1.2,1.8,1.2,3v58.5c0,1.2-.4,2.2-1.2,3-.8.8-1.9,1.2-3,1.2s-2.2-.4-3-1.2c-.8-.8-1.2-1.8-1.2-3v-58.5Z"/>
        <path class="st1" d="M2273.8,580.5c0-4.6.9-8.9,2.6-13,1.8-4.1,4.1-7.6,7.1-10.6,3-3,6.5-5.4,10.6-7.1,4.1-1.8,8.4-2.6,13-2.6s8.9.9,13,2.6c4.1,1.8,7.6,4.1,10.6,7.1,3,3,5.4,6.5,7.1,10.6s2.6,8.4,2.6,13v29.6c0,1.2-.4,2.2-1.2,3-.8.8-1.9,1.2-3,1.2s-2.2-.4-3-1.2c-.8-.8-1.2-1.8-1.2-3v-29.6c0-3.4-.6-6.6-1.9-9.6-1.3-3-3.1-5.6-5.3-7.9s-4.9-4-7.9-5.3c-3-1.3-6.2-1.9-9.6-1.9s-6.6.7-9.6,1.9c-3,1.3-5.6,3.1-7.9,5.3-2.3,2.3-4,4.9-5.3,7.9-1.3,3-1.9,6.2-1.9,9.6v29.6c0,1.2-.4,2.2-1.2,3-.8.8-1.9,1.2-3,1.2s-2.2-.4-3.1-1.2-1.2-1.8-1.2-3v-29.6Z"/>
        <path class="st1" d="M2372.8,639.3c-1.1,0-2.4.5-3.7,1.4-1.4.8-2.4,1.8-3.2,3-.6,1-1.4,1.7-2.5,2.1-1.1.4-2.2.3-3.3-.1-1-.5-1.7-1.4-2-2.5-.3-1.1-.3-2.2.2-3.2,1.3-2.7,3.2-4.9,5.8-6.6,2.6-1.7,5.5-2.6,8.7-2.6h18.3c1.9,0,3.8-.4,5.5-1.1,1.8-.7,3.3-1.8,4.6-3s2.3-2.8,3-4.6c.7-1.8,1.1-3.6,1.1-5.5s-.3-3.6-1-5.3-1.7-3.2-3-4.5c-2.9,2.3-6.2,4.1-9.7,5.4-3.5,1.3-7.3,1.9-11.3,1.9s-8.9-.8-12.9-2.5-7.5-4-10.6-6.9c-3.1-3-5.4-6.5-7.2-10.5-1.8-4-2.6-8.5-2.6-13.3s.9-8.9,2.6-12.9,4.1-7.5,7.1-10.5c3-3,6.6-5.4,10.6-7.2,4.1-1.8,8.6-2.8,13.4-3,4.4,0,8.6.9,12.6,2.7s7.5,4.2,10.6,7.3c3.1,3,5.5,6.6,7.3,10.7s2.7,8.4,2.7,13-.6,7.2-1.7,10.6c-1.2,3.4-2.8,6.4-4.9,9.2,2,2,3.6,4.4,4.8,7.1,1.2,2.7,1.8,5.7,1.8,8.8s-.6,6.1-1.8,8.8c-1.2,2.7-2.8,5.1-4.8,7.2-2,2.1-4.4,3.7-7.2,4.9-2.8,1.2-5.7,1.8-8.9,1.8h-18.3ZM2355.5,580.9c0,3.4.6,6.6,1.9,9.6,1.3,3,3.1,5.6,5.3,7.9,2.3,2.3,4.9,4,7.9,5.3,3,1.3,6.2,1.9,9.6,1.9s6.6-.6,9.7-1.9c3-1.3,5.7-3.1,7.9-5.3,2.3-2.3,4-4.9,5.3-7.9,1.3-3,1.9-6.2,1.9-9.6s-.6-6.6-1.9-9.7-3.1-5.7-5.3-8c-2.3-2.3-4.9-4-7.9-5.3s-6.3-1.9-9.7-1.9-6.6.7-9.6,1.9c-3,1.3-5.6,3.1-7.9,5.3-2.3,2.3-4,4.9-5.3,8-1.3,3-1.9,6.3-1.9,9.7Z"/>
      </g>
      <path class="st1" d="M263.8,229.4c14.1-10.8,25.7-24.5,34.6-40.9,10-18.6,15.1-39.1,15.1-61.1s-3.4-33.5-10-48.7c-6.6-15.1-15.7-28.6-27.2-40.1-11.5-11.5-25-20.6-40.1-27.2-15.2-6.6-31.6-10-48.7-10H26.8c-7.4,0-13.8,2.6-19,7.8C2.6,14.4,0,20.8,0,28.2v412.9c0,7.4,2.6,13.8,7.8,19,5.2,5.2,11.6,7.8,19,7.8h160.9c17.5-.5,34.4-4.2,50-11,15.6-6.8,29.5-16.4,41.2-28.3,11.7-12,21-25.9,27.6-41.5,6.6-15.6,9.9-32.7,9.9-50.8s-5.5-44.4-16.2-64c-9.5-17.3-21.8-31.8-36.4-43h0ZM187.6,414.4H53.6v-157.5h133.6c24,4.1,42.7,13.8,55.5,28.8,12.9,15.1,19.4,32.1,19.4,50.7s-2,20.1-6,29.6c-4,9.6-9.4,18-16.1,25.1-6.6,7.1-14.6,12.8-23.6,17-9,4.2-18.7,6.3-28.8,6.3h0ZM240.9,178.8c-6.6,6.4-14.5,11.6-23.3,15.3-8.9,3.8-18.3,5.9-27.9,6.3H53.6V55h134c9.7,0,19.1,2,28.2,6,9.1,4,17.2,9.4,24.1,16,6.8,6.6,12.3,14.5,16.3,23.3,4,8.8,6,18.1,6,27.8s-1.9,19.6-5.6,28.2c-3.8,8.6-9,16.2-15.6,22.5h0Z"/>
      <path class="st1" d="M657.1,167.9c-15.9-15.9-34.6-28.8-55.6-38.2-21.1-9.4-43.5-14.2-66.8-14.2h-.2c-25.1,1-48.7,6.2-70.1,15.6-21.5,9.4-40.3,22.1-56,37.8s-28.2,34.4-37.1,55.4c-9,21-13.5,43.9-13.5,68.1s4.7,48.6,13.9,69.9c9.2,21.2,21.9,39.9,37.9,55.4,15.9,15.5,34.7,27.7,55.7,36.4,21,8.7,43.9,13.1,68.1,13.1s51-6.5,73.6-19.4c18.5-10.5,35-23,49.1-37v31.1c0,7.4,2.6,13.8,7.8,19,5.2,5.2,11.6,7.8,19,7.8s13.8-2.6,19-7.8c5.2-5.2,7.8-11.6,7.8-19v-149.5c0-24.2-4.8-47.2-14.2-68.5-9.4-21.2-22.3-40.1-38.2-56h0ZM533.2,414.4c-16.8,0-32.7-3.2-47.3-9.5-14.7-6.3-27.8-15.2-38.9-26.2-11.1-11.1-19.9-24.1-26.2-38.9-6.3-14.6-9.5-30.6-9.5-47.3s3.2-32.8,9.5-47.7c6.3-14.9,15.1-28.1,26.2-39.2,11.1-11.1,24.1-19.9,38.9-26.2,14.7-6.3,30.6-9.5,47.3-9.5s32.8,3.2,47.7,9.5c14.9,6.3,28.1,15.2,39.2,26.2,11.1,11.1,19.9,24.3,26.2,39.2,6.3,14.9,9.5,31,9.5,47.4-.9,17.7-4.7,34.2-11.3,48.9-6.6,14.7-15.5,27.7-26.6,38.5-11.1,10.9-24,19.5-38.5,25.6-14.5,6.1-30,9.2-46.3,9.2h0Z"/>
      <path class="st1" d="M1055.8,167.9c-15.9-15.9-34.7-28.8-55.6-38.2-21.1-9.4-43.5-14.2-66.8-14.2h-.2c-27.1,1-52.2,8-74.5,20.8-18.3,10.5-34.6,22.8-48.7,36.5V27.5c0-7.4-2.6-13.8-7.8-19-5.2-5.2-11.6-7.8-19-7.8s-13.8,2.6-19,7.8-7.8,11.6-7.8,19v264.9c0,25.1,4.7,48.6,13.8,69.9,9.2,21.2,21.9,39.9,37.9,55.4,16,15.5,34.7,27.7,55.7,36.4,21,8.7,43.9,13.1,68.1,13.1s47.9-4.7,69.2-13.9c21.2-9.2,40-21.9,55.7-37.9,15.7-15.9,28.3-34.7,37.5-55.6,9.2-21.1,13.9-43.8,13.9-67.5s-4.8-47.2-14.2-68.5c-9.4-21.2-22.3-40.1-38.2-56h0ZM932,414.4c-16.8,0-32.7-3.2-47.3-9.5-14.7-6.3-27.8-15.2-38.9-26.2-11.1-11.1-19.9-24.1-26.2-38.9-6.3-14.6-9.5-30.5-9.5-47.2.5-17.6,4.1-34.1,10.9-49.1,6.8-15,15.8-28.1,26.6-39,10.8-10.9,23.7-19.4,38.1-25.5,14.4-6.1,30-9.2,46.3-9.2s32.8,3.2,47.7,9.5c14.9,6.3,28.1,15.2,39.2,26.2,11.1,11.1,19.9,24.3,26.2,39.2,6.3,14.9,9.5,31,9.5,47.7s-3.2,32.6-9.5,47.3c-6.3,14.7-15.2,27.8-26.2,38.9-11.1,11.1-24.3,19.9-39.2,26.2-14.9,6.3-30.9,9.5-47.7,9.5h0Z"/>
      <path class="st1" d="M1453.3,114c-7.4,0-13.8,2.6-19,7.8-5.2,5.2-7.8,11.6-7.8,19v156.3c-.9,16.3-4.7,31.8-11.2,46.1-6.6,14.3-15.4,26.8-26.2,37.1-10.8,10.4-23.7,18.8-38.2,24.9-14.4,6.1-30,9.2-46.3,9.2s-32.7-3.2-47.3-9.5c-14.7-6.3-27.8-15.2-38.9-26.2-11.1-11.1-19.9-24.1-26.2-38.9-6.3-14.6-9.5-30.6-9.5-47.3v-151.6c0-7.4-2.6-13.8-7.8-19s-11.6-7.8-19-7.8-13.8,2.6-19,7.8-7.8,11.6-7.8,19v151.6c0,24.2,4.7,47.2,13.8,68.5,9.2,21.2,21.8,40,37.5,55.7,15.7,15.7,34.4,28.3,55.7,37.5,21.3,9.2,44.3,13.9,68.5,13.9s50.6-5.3,72.9-15.7c18.4-8.6,34.9-19.9,49.1-33.8v209.4c0,7.4,2.6,13.8,7.8,19,5.2,5.2,11.6,7.8,19,7.8s13.8-2.6,19-7.8c5.2-5.2,7.8-11.6,7.8-19V140.8c0-7.4-2.6-13.8-7.8-19-5.2-5.2-11.6-7.8-19-7.8h0Z"/>
      <path class="st1" d="M1652.5,414.4h0c-14.6-.4-26.4-3.5-35.1-9.1-8.8-5.7-15.7-12.4-20.5-19.8-4.8-7.5-8.1-14.8-9.6-21.8-1.6-7.1-2.4-12.5-2.4-16V26.8c0-7.4-2.6-13.8-7.8-19-5.2-5.2-11.6-7.8-19-7.8s-13.8,2.6-19,7.8c-5.2,5.2-7.8,11.6-7.8,19v320.9c0,10.8,2.1,23.2,6.2,36.8,4.2,13.7,11.1,26.9,20.7,39.1,9.6,12.3,22.1,22.7,37.3,31,15.2,8.4,34.3,12.9,56.9,13.3,7.4,0,13.8-2.6,19-7.8s7.8-11.6,7.8-19-2.6-13.8-7.8-19c-5.2-5.2-11.6-7.8-18.8-7.8h0Z"/>
      <path class="st1" d="M1979.5,167.9c-15.9-15.9-34.6-28.8-55.6-38.2-21.1-9.4-43.5-14.2-66.8-14.2h-.2c-25.1,1-48.7,6.2-70.1,15.6-21.5,9.4-40.3,22.1-56,37.8-15.7,15.7-28.2,34.4-37.2,55.4-8.9,21-13.5,43.9-13.5,68.1s4.7,48.6,13.8,69.9c9.2,21.2,21.9,39.9,37.9,55.4,15.9,15.5,34.7,27.7,55.7,36.4,21,8.7,43.9,13.1,68.1,13.1s47.9-4.7,69.2-13.9c21.2-9.2,40-21.9,55.7-37.9,15.7-15.9,28.3-34.7,37.5-55.6,9.2-21.1,13.9-43.8,13.9-67.5s-4.8-47.2-14.2-68.5c-9.4-21.2-22.3-40.1-38.2-56h0ZM1855.6,414.4c-16.8,0-32.7-3.2-47.3-9.5-14.7-6.3-27.8-15.2-38.9-26.2-11.1-11.1-19.9-24.1-26.2-38.9-6.3-14.6-9.5-30.6-9.5-47.3s3.2-32.8,9.5-47.7c6.3-14.9,15.2-28.1,26.2-39.2,11.1-11.1,24.2-19.9,38.9-26.2,14.7-6.3,30.6-9.5,47.3-9.5s32.8,3.2,47.7,9.5c14.9,6.3,28.1,15.2,39.2,26.2,11.1,11.1,19.9,24.3,26.2,39.2,6.3,14.9,9.5,31,9.5,47.7s-3.2,32.6-9.5,47.3c-6.3,14.7-15.2,27.8-26.2,38.9-11.1,11.1-24.3,19.9-39.2,26.2-14.9,6.3-30.9,9.5-47.7,9.5h0Z"/>
      <g>
        <polygon class="st0" points="2424 8.4 2424 78.1 2294.8 78.1 2294.8 8.4 2317.9 8.4 2317.9 38.5 2348.1 38.5 2348.1 8.4 2371.1 8.4 2371.1 38.5 2400.9 38.5 2400.9 8.4 2424 8.4"/>
        <polygon class="st0" points="2202.1 8.4 2202.1 78.1 2072.9 78.1 2072.9 8.4 2096 8.4 2096 38.5 2126.2 38.5 2126.2 8.4 2149.3 8.4 2149.3 38.5 2179 38.5 2179 8.4 2202.1 8.4"/>
        <rect class="st0" x="2236" y="8.4" width="26.6" height="69.6"/>
      </g>
      <path class="st1" d="M2072.9,100.5v340.6c0,7.4,2.6,13.8,7.8,19s11.6,7.8,19,7.8,13.8-2.6,19-7.8c5.2-5.2,7.8-11.6,7.8-19v-151.6c0-16.7,3.2-32.7,9.5-47.3,6.3-14.7,15.2-27.8,26.2-38.9,11.1-11.1,24.1-19.9,38.9-26.2,14.7-6.3,30.6-9.5,47.3-9.5s32.6,3.2,47.3,9.5c14.7,6.4,27.8,15.2,38.9,26.2,11.1,11.1,19.9,24.2,26.2,38.9,6.3,14.7,9.5,30.6,9.5,47.3v151.6c0,7.4,2.6,13.8,7.8,19,5.2,5.2,11.6,7.8,19,7.8s13.8-2.6,19-7.8,7.8-11.6,7.8-19V100.5h-351.1,0Z"/>
      <path class="st0" d="M2338.6,462.5c-6.7,0-12.1-5.4-12.1-12.1v-153c0-43-35-78.1-78.1-78.1s-78.1,35-78.1,78.1v153c0,6.7-5.4,12.1-12.1,12.1s-12.1-5.4-12.1-12.1v-153c0-56.4,45.9-102.2,102.2-102.2s102.2,45.9,102.2,102.2v153c0,6.7-5.4,12.1-12.1,12.1h0Z"/>
    </g>
  </g>
</svg>