<svg width="151" height="150" viewBox="0 0 151 150" fill="none" xmlns="http://www.w3.org/2000/svg">
<g clip-path="url(#clip0_604_45723)">
<path d="M76.1668 108.985H74.8361C66.3136 108.985 59.2478 102.32 58.7503 93.8124L54.2615 17.054C54.0037 12.6434 55.5942 8.27109 58.6255 5.05723C61.6569 1.84307 65.9293 0 70.3472 0H80.6556C85.0733 0 89.3457 1.84307 92.377 5.05693C95.4086 8.2708 96.9992 12.6437 96.7417 17.0537L92.2531 93.8124C91.755 102.321 84.6889 108.985 76.1668 108.985Z" fill="#FF674F"/>
<path d="M76.1663 108.985C84.6888 108.985 91.7546 102.321 92.2523 93.8124L96.7409 17.0537C96.9987 12.6434 95.4079 8.2708 92.3766 5.05693C89.3452 1.84307 85.0728 0 80.6552 0H75.501V108.985H76.1663Z" fill="#F2472C"/>
<path d="M75.501 150C66.6161 150 59.3877 142.771 59.3877 133.887C59.3877 125.002 66.6161 117.773 75.501 117.773C84.3858 117.773 91.6143 125.002 91.6143 133.886C91.6143 142.771 84.3858 150 75.501 150Z" fill="#FF674F"/>
<path d="M75.501 117.773V150C84.3858 150 91.6143 142.771 91.6143 133.886C91.6143 125.002 84.3858 117.773 75.501 117.773Z" fill="#F2472C"/>
<path d="M44.8605 117.703C43.3482 117.703 41.877 116.922 41.0602 115.521C37.5255 109.46 35.6572 102.539 35.6572 95.5058C35.6572 88.4722 37.5255 81.5508 41.0602 75.4902C42.2827 73.394 44.973 72.6844 47.0701 73.9081C49.1666 75.1307 49.875 77.8213 48.6524 79.9181C45.9006 84.6364 44.4463 90.0264 44.4463 95.5058C44.4463 100.985 45.9006 106.375 48.6524 111.094C49.875 113.19 49.1666 115.881 47.0701 117.104C46.374 117.51 45.612 117.703 44.8605 117.703Z" fill="#FF9300"/>
<path d="M29.6645 126.529C28.1522 126.529 26.681 125.748 25.8642 124.348C20.7712 115.614 18.0791 105.64 18.0791 95.5047C18.0791 85.3692 20.7712 75.3956 25.8645 66.6619C27.0867 64.5655 29.7776 63.8568 31.8744 65.0796C33.9712 66.3025 34.6796 68.9931 33.4567 71.0899C29.1463 78.4809 26.8682 86.9234 26.8682 95.5047C26.8682 104.086 29.1463 112.529 33.4567 119.92C34.6793 122.016 33.9709 124.707 31.8744 125.93C31.178 126.336 30.4163 126.529 29.6645 126.529Z" fill="#FFB500"/>
<path d="M14.4466 135.37C12.9331 135.37 11.4609 134.588 10.6444 133.186C4.00869 121.787 0.500977 108.758 0.500977 95.5055C0.500977 82.2537 4.00869 69.2236 10.6444 57.825C11.8655 55.7277 14.5559 55.0166 16.6532 56.2383C18.7506 57.4594 19.461 60.1497 18.2402 62.2471C12.385 72.3047 9.29004 83.8052 9.29004 95.5055C9.29004 107.206 12.385 118.706 18.2402 128.764C19.4613 130.861 18.7509 133.551 16.6532 134.772C15.958 135.177 15.1972 135.37 14.4466 135.37Z" fill="#FFE645"/>
<path d="M106.18 117.639C105.431 117.639 104.673 117.447 103.978 117.044C101.879 115.826 101.165 113.137 102.383 111.038C105.114 106.333 106.557 100.962 106.557 95.5051C106.557 90.0477 105.114 84.6767 102.383 79.9722C101.165 77.8731 101.879 75.1836 103.978 73.9654C106.077 72.7476 108.767 73.461 109.985 75.5604C113.492 81.6034 115.346 88.5002 115.346 95.5051C115.346 102.51 113.492 109.406 109.985 115.449C109.17 116.854 107.696 117.639 106.18 117.639Z" fill="#FF9300"/>
<path d="M121.376 126.467C120.626 126.467 119.866 126.275 119.171 125.871C117.073 124.652 116.361 121.962 117.58 119.864C121.868 112.487 124.134 104.065 124.134 95.5061C124.134 86.9477 121.868 78.5251 117.58 71.1487C116.361 69.0505 117.073 66.3607 119.171 65.1411C121.268 63.9212 123.959 64.6331 125.179 66.7319C130.245 75.448 132.923 85.3978 132.923 95.5061C132.923 105.614 130.245 115.564 125.179 124.28C124.363 125.684 122.89 126.467 121.376 126.467Z" fill="#FFB500"/>
<path d="M136.593 135.308C135.843 135.308 135.084 135.116 134.39 134.713C132.291 133.494 131.577 130.804 132.796 128.706C138.629 118.664 141.712 107.184 141.712 95.5066C141.712 83.8297 138.629 72.3494 132.797 62.3076C131.578 60.2091 132.291 57.5193 134.39 56.3006C136.488 55.0813 139.178 55.7941 140.397 57.8938C147.007 69.2744 150.501 82.2811 150.501 95.5066C150.501 108.732 147.007 121.739 140.397 133.12C139.581 134.524 138.107 135.308 136.593 135.308Z" fill="#FFE645"/>
</g>
<defs>
<clipPath id="clip0_604_45723">
<rect width="150" height="150" fill="white" transform="translate(0.5)"/>
</clipPath>
</defs>
</svg>
