<svg width="40" height="40" viewBox="0 0 40 40" fill="none" xmlns="http://www.w3.org/2000/svg">
<path d="M15.9498 31.3669C16.2665 31.3669 16.5831 31.2502 16.8331 31.0002C17.3165 30.5169 17.3165 29.7169 16.8331 29.2335L7.5998 20.0002L16.8331 10.7669C17.3165 10.2835 17.3165 9.48353 16.8331 9.0002C16.3498 8.51686 15.5498 8.51686 15.0665 9.0002L4.9498 19.1169C4.46646 19.6002 4.46646 20.4002 4.9498 20.8835L15.0665 31.0002C15.3165 31.2502 15.6331 31.3669 15.9498 31.3669Z" fill="white"/>
<path d="M6.11667 21.25H34.1667C34.85 21.25 35.4167 20.6833 35.4167 20C35.4167 19.3167 34.85 18.75 34.1667 18.75H6.11667C5.43334 18.75 4.86667 19.3167 4.86667 20C4.86667 20.6833 5.43334 21.25 6.11667 21.25Z" fill="white"/>
</svg>
