
<svg width="21" height="16" viewBox="0 0 21 16" fill="none" xmlns="http://www.w3.org/2000/svg">
<g clip-path="url(#clip0_1784_8980)">
<rect y="0.5" width="21" height="15" rx="3" fill="white"/>
<path fill-rule="evenodd" clip-rule="evenodd" d="M0 10.5H21V15.5H0V10.5Z" fill="#151515"/>
<path fill-rule="evenodd" clip-rule="evenodd" d="M10 8.5H11V8.995C11 9.285 11.224 9.5 11.5 9.5C11.768 9.5 12 9.274 12 8.995V6.995C12 6.722 12.232 6.5 12.5 6.5C12.776 6.5 13 6.716 13 6.995V8.5H14.49C14.772 8.5 15 8.732 15 9C15 9.276 14.778 9.5 14.49 9.5H6.51C6.228 9.5 6 9.268 6 9C6 8.788 6.13 8.607 6.32 8.534C6.345 8.47 6.383 8.409 6.436 8.357L7.856 6.937C8.05 6.743 8.371 6.75 8.561 6.939C8.757 7.134 8.763 7.444 8.565 7.642L7.707 8.5H9V8.005C9 7.725 9.232 7.5 9.5 7.5C9.776 7.5 10 7.714 10 8.005V8.5Z" fill="#249F58"/>
<path fill-rule="evenodd" clip-rule="evenodd" d="M0 0.5H21V5.5H0V0.5Z" fill="#F93939"/>
</g>
<defs>
<clipPath id="clip0_1784_8980">
<rect y="0.5" width="21" height="15" rx="3" fill="white"/>
</clipPath>
</defs>
</svg>
