<svg width="96" height="96" viewBox="0 0 96 96" fill="none" xmlns="http://www.w3.org/2000/svg">
<path d="M12 82.9294V76.5008H43.4286V82.9294H12ZM12 65.2508V58.8223H61.2381V65.2508H12Z" fill="#273C98"/>
<path d="M44.1169 44.9821C44.9573 45.8514 45.9657 46.286 47.1422 46.286C48.3186 46.286 49.327 45.8514 50.1674 44.9821C51.0077 44.1129 51.4279 43.0698 51.4279 41.8529C51.4279 40.636 51.0077 39.5929 50.1674 38.7236C49.327 37.8544 48.3186 37.4198 47.1422 37.4198C45.9657 37.4198 44.9573 37.8544 44.1169 38.7236C43.2766 39.5929 42.8564 40.636 42.8564 41.8529C42.8564 43.0698 43.2766 44.1129 44.1169 44.9821Z" fill="#273C98"/>
<path d="M43.3606 6.85742V32.9345H50.9237V6.85742H43.3606Z" fill="#273C98"/>
</svg>
